BBB Poppins TN-500.ufo
<glyph name="exclam" format="1">
  <advance width="321"/>
  <unicode hex="0021"/>
  <outline>
    <contour>
      <point x="97" y="695" type="line"/>
      <point x="110" y="210" type="line"/>
      <point x="205" y="210" type="line"/>
      <point x="218" y="695" type="line"/>
    </contour>
    <component base="period" xOffset="40"/>
  </outline>
</glyph>
<glyph name="quotedbl" format="1">
  <advance width="323"/>
  <unicode hex="0022"/>
  <outline>
    <contour>
      <point x="34" y="797" type="line"/>
      <point x="47" y="592" type="line"/>
      <point x="125" y="592" type="line"/>
      <point x="137" y="797" type="line"/>
    </contour>
    <contour>
      <point x="185" y="797" type="line"/>
      <point x="198" y="592" type="line"/>
      <point x="276" y="592" type="line"/>
      <point x="288" y="797" type="line"/>
    </contour>
  </outline>
</glyph>
<glyph name="ampersand" format="1">
  <advance width="761"/>
  <unicode hex="0026"/>
  <outline>
    <contour>
      <point x="403" y="540" type="curve"/>
      <point x="517" y="540" type="line"/>
      <point x="524" y="635"/>
      <point x="459" y="711"/>
      <point x="338" y="711" type="curve" smooth="yes"/>
      <point x="219" y="711"/>
      <point x="145" y="642"/>
      <point x="145" y="551" type="curve" smooth="yes"/>
      <point x="145" y="489"/>
      <point x="167" y="446"/>
      <point x="234" y="379" type="curve" smooth="yes"/>
      <point x="612" y="0" type="line"/>
      <point x="761" y="0" type="line"/>
      <point x="329" y="429" type="line" smooth="yes"/>
      <point x="280" y="482"/>
      <point x="259" y="513"/>
      <point x="259" y="551" type="curve" smooth="yes"/>
      <point x="259" y="588"/>
      <point x="288" y="618"/>
      <point x="333" y="618" type="curve" smooth="yes"/>
      <point x="376" y="618"/>
      <point x="405" y="591"/>
    </contour>
    <contour>
      <point x="335" y="369" type="line"/>
      <point x="274" y="444" type="line"/>
      <point x="233" y="431" type="line" smooth="yes"/>
      <point x="100" y="389"/>
      <point x="35" y="304"/>
      <point x="35" y="200" type="curve" smooth="yes"/>
      <point x="35" y="70"/>
      <point x="135" y="-13"/>
      <point x="285" y="-13" type="curve" smooth="yes"/>
      <point x="430" y="-13"/>
      <point x="530" y="59"/>
      <point x="617" y="209" type="curve" smooth="yes"/>
      <point x="707" y="363" type="line"/>
      <point x="584" y="363" type="line"/>
      <point x="509" y="240" type="line" smooth="yes"/>
      <point x="446" y="136"/>
      <point x="377" y="84"/>
      <point x="285" y="84" type="curve" smooth="yes"/>
      <point x="203" y="84"/>
      <point x="149" y="137"/>
      <point x="149" y="204" type="curve" smooth="yes"/>
      <point x="149" y="271"/>
      <point x="192" y="321"/>
      <point x="287" y="353" type="curve" smooth="yes"/>
    </contour>
  </outline>
</glyph>
<glyph name="quotesingle" format="1">
  <advance width="172"/>
  <unicode hex="0027"/>
  <outline>
    <contour>
      <point x="34" y="797" type="line"/>
      <point x="47" y="592" type="line"/>
      <point x="125" y="592" type="line"/>
      <point x="137" y="797" type="line"/>
    </contour>
  </outline>
</glyph>
<glyph name="parenleft" format="1">
  <advance width="413"/>
  <unicode hex="0028"/>
  <outline>
    <contour>
      <point x="283" y="-86" type="curve"/>
      <point x="413" y="-86" type="line"/>
      <point x="273" y="69"/>
      <point x="200" y="186"/>
      <point x="200" y="344" type="curve" smooth="yes"/>
      <point x="200" y="502"/>
      <point x="273" y="636"/>
      <point x="413" y="794" type="curve"/>
      <point x="283" y="794" type="line"/>
      <point x="161" y="659"/>
      <point x="90" y="522"/>
      <point x="90" y="344" type="curve" smooth="yes"/>
      <point x="90" y="166"/>
      <point x="161" y="41"/>
    </contour>
  </outline>
</glyph>
<glyph name="plus" format="1">
  <advance width="714"/>
  <unicode hex="002B"/>
  <outline>
    <contour>
      <point x="410" y="616" type="line"/>
      <point x="304" y="616" type="line"/>
      <point x="304" y="106" type="line"/>
      <point x="410" y="106" type="line"/>
    </contour>
    <contour>
      <point x="102" y="409" type="line"/>
      <point x="102" y="313" type="line"/>
      <point x="612" y="313" type="line"/>
      <point x="612" y="409" type="line"/>
    </contour>
  </outline>
</glyph>
<glyph name="slash" format="1">
  <advance width="514"/>
  <unicode hex="002F"/>
  <outline>
    <contour>
      <point x="332" y="944" type="line"/>
      <point x="61" y="-175" type="line"/>
      <point x="173" y="-175" type="line"/>
      <point x="445" y="944" type="line"/>
    </contour>
  </outline>
</glyph>
<glyph name="one" format="1">
  <advance width="350"/>
  <unicode hex="0031"/>
  <outline>
    <contour>
      <point x="138" y="625" type="line"/>
      <point x="138" y="0" type="line"/>
      <point x="253" y="0" type="line"/>
      <point x="253" y="729" type="line"/>
      <point x="45" y="729" type="line"/>
      <point x="45" y="625" type="line"/>
    </contour>
  </outline>
</glyph>
<glyph name="two" format="1">
  <advance width="595"/>
  <unicode hex="0032"/>
  <outline>
    <contour>
      <point x="59" y="83" type="line"/>
      <point x="59" y="0" type="line"/>
      <point x="545" y="0" type="line"/>
      <point x="545" y="95" type="line"/>
      <point x="224" y="95" type="line"/>
      <point x="346" y="215" type="line" smooth="yes"/>
      <point x="480" y="347"/>
      <point x="527" y="439"/>
      <point x="527" y="530" type="curve" smooth="yes"/>
      <point x="527" y="655"/>
      <point x="445" y="742"/>
      <point x="296" y="742" type="curve" smooth="yes"/>
      <point x="168" y="742"/>
      <point x="62" y="663"/>
      <point x="58" y="499" type="curve"/>
      <point x="168" y="499" type="line"/>
      <point x="171" y="587"/>
      <point x="214" y="645"/>
      <point x="292" y="645" type="curve" smooth="yes"/>
      <point x="379" y="645"/>
      <point x="412" y="595"/>
      <point x="412" y="530" type="curve" smooth="yes"/>
      <point x="412" y="460"/>
      <point x="371" y="387"/>
      <point x="260" y="279" type="curve" smooth="yes"/>
    </contour>
  </outline>
</glyph>
<glyph name="three" format="1">
  <advance width="610"/>
  <unicode hex="0033"/>
  <outline>
    <contour>
      <point x="305" y="457" type="curve"/>
      <point x="232" y="457" type="line"/>
      <point x="302" y="419" type="line"/>
      <point x="519" y="642" type="line"/>
      <point x="519" y="729" type="line"/>
      <point x="88" y="729" type="line"/>
      <point x="88" y="634" type="line"/>
      <point x="464" y="634" type="line"/>
      <point x="420" y="674" type="line"/>
      <point x="201" y="448" type="line"/>
      <point x="201" y="367" type="line"/>
      <point x="304" y="367" type="line" smooth="yes"/>
      <point x="387" y="367"/>
      <point x="439" y="316"/>
      <point x="439" y="230" type="curve" smooth="yes"/>
      <point x="439" y="142"/>
      <point x="386" y="91"/>
      <point x="303" y="91" type="curve" smooth="yes"/>
      <point x="217" y="91"/>
      <point x="172" y="143"/>
      <point x="167" y="211" type="curve"/>
      <point x="53" y="211" type="line"/>
      <point x="60" y="68"/>
      <point x="165" y="-4"/>
      <point x="301" y="-4" type="curve" smooth="yes"/>
      <point x="457" y="-4"/>
      <point x="553" y="87"/>
      <point x="553" y="230" type="curve" smooth="yes"/>
      <point x="553" y="375"/>
      <point x="459" y="457"/>
    </contour>
  </outline>
</glyph>
<glyph name="seven" format="1">
  <advance width="552"/>
  <unicode hex="0037"/>
  <outline>
    <contour>
      <point x="512" y="726" type="line"/>
      <point x="30" y="726" type="line"/>
      <point x="30" y="629" type="line"/>
      <point x="400" y="629" type="line"/>
      <point x="119" y="0" type="line"/>
      <point x="234" y="0" type="line"/>
      <point x="512" y="641" type="line"/>
    </contour>
  </outline>
</glyph>
<glyph name="less" format="1">
  <advance width="612"/>
  <unicode hex="003C"/>
  <outline>
    <contour>
      <point x="472" y="134" type="line"/>
      <point x="241" y="361" type="line"/>
      <point x="472" y="588" type="line"/>
      <point x="328" y="588" type="line"/>
      <point x="98" y="361" type="line"/>
      <point x="328" y="134" type="line"/>
    </contour>
  </outline>
</glyph>
<glyph name="equal" format="1">
  <advance width="774"/>
  <unicode hex="003D"/>
  <outline>
    <contour>
      <point x="121" y="296" type="line"/>
      <point x="121" y="200" type="line"/>
      <point x="653" y="200" type="line"/>
      <point x="653" y="296" type="line"/>
    </contour>
    <contour>
      <point x="121" y="523" type="line"/>
      <point x="121" y="427" type="line"/>
      <point x="653" y="427" type="line"/>
      <point x="653" y="523" type="line"/>
    </contour>
  </outline>
</glyph>
<glyph name="greater" format="1">
  <advance width="590"/>
  <unicode hex="003E"/>
  <outline>
    <contour>
      <point x="343" y="361" type="line"/>
      <point x="112" y="134" type="line"/>
      <point x="256" y="134" type="line"/>
      <point x="486" y="361" type="line"/>
      <point x="256" y="588" type="line"/>
      <point x="112" y="588" type="line"/>
    </contour>
  </outline>
</glyph>
<glyph name="A" format="1">
  <advance width="698"/>
  <unicode hex="0041"/>
  <outline>
    <contour>
      <point x="415" y="696" type="line"/>
      <point x="283" y="696" type="line"/>
      <point x="34" y="0" type="line"/>
      <point x="153" y="0" type="line"/>
      <point x="375" y="634" type="line"/>
      <point x="322" y="634" type="line"/>
      <point x="544" y="0" type="line"/>
      <point x="664" y="0" type="line"/>
    </contour>
    <contour>
      <point x="167" y="235" type="line"/>
      <point x="138" y="142" type="line"/>
      <point x="554" y="142" type="line"/>
      <point x="524" y="235" type="line"/>
    </contour>
    <contour>
      <point x="664" y="0" type="move" name="ogonek"/>
    </contour>
    <contour>
      <point x="349" y="696" type="move" name="top"/>
    </contour>
  </outline>
</glyph>
<glyph name="B" format="1">
  <advance width="625"/>
  <unicode hex="0042"/>
  <outline>
    <contour>
      <point x="449" y="565"/>
      <point x="449" y="502" type="curve" smooth="yes"/>
      <point x="449" y="438"/>
      <point x="404" y="403"/>
      <point x="330" y="403" type="curve" smooth="yes"/>
      <point x="189" y="403" type="line"/>
      <point x="189" y="602" type="line"/>
      <point x="330" y="602" type="line" smooth="yes"/>
      <point x="404" y="602"/>
    </contour>
    <contour>
      <point x="581" y="81"/>
      <point x="581" y="187" type="curve" smooth="yes"/>
      <point x="581" y="277"/>
      <point x="511" y="356"/>
      <point x="428" y="359" type="curve"/>
      <point x="411" y="347" type="line"/>
      <point x="495" y="364"/>
      <point x="565" y="417"/>
      <point x="565" y="516" type="curve" smooth="yes"/>
      <point x="565" y="614"/>
      <point x="487" y="695"/>
      <point x="340" y="695" type="curve" smooth="yes"/>
      <point x="75" y="695" type="line"/>
      <point x="75" y="0" type="line"/>
      <point x="353" y="0" type="line" smooth="yes"/>
      <point x="495" y="0"/>
    </contour>
    <contour>
      <point x="467" y="268"/>
      <point x="467" y="199" type="curve" smooth="yes"/>
      <point x="467" y="132"/>
      <point x="420" y="93"/>
      <point x="343" y="93" type="curve" smooth="yes"/>
      <point x="189" y="93" type="line"/>
      <point x="189" y="310" type="line"/>
      <point x="339" y="310" type="line" smooth="yes"/>
      <point x="415" y="310"/>
    </contour>
  </outline>
</glyph>
<glyph name="C" format="1">
  <advance width="740"/>
  <unicode hex="0043"/>
  <outline>
    <contour>
      <point x="37" y="557"/>
      <point x="37" y="349" type="curve" smooth="yes"/>
      <point x="37" y="140"/>
      <point x="196" y="-6"/>
      <point x="392" y="-6" type="curve" smooth="yes"/>
      <point x="537" y="-6"/>
      <point x="662" y="66"/>
      <point x="715" y="202" type="curve"/>
      <point x="578" y="202" type="line"/>
      <point x="541" y="128"/>
      <point x="475" y="93"/>
      <point x="392" y="93" type="curve" smooth="yes"/>
      <point x="254" y="93"/>
      <point x="154" y="192"/>
      <point x="154" y="349" type="curve" smooth="yes"/>
      <point x="154" y="506"/>
      <point x="254" y="604"/>
      <point x="392" y="604" type="curve" smooth="yes"/>
      <point x="475" y="604"/>
      <point x="541" y="569"/>
      <point x="578" y="495" type="curve"/>
      <point x="715" y="495" type="line"/>
      <point x="662" y="631"/>
      <point x="537" y="704"/>
      <point x="392" y="704" type="curve" smooth="yes"/>
      <point x="196" y="704"/>
    </contour>
    <contour>
      <point x="386" y="0" type="move" name="bottom"/>
    </contour>
    <contour>
      <point x="392" y="704" type="move" name="top"/>
    </contour>
  </outline>
</glyph>
<glyph name="D" format="1">
  <advance width="713"/>
  <unicode hex="0044"/>
  <outline>
    <contour>
      <point x="525" y="695"/>
      <point x="302" y="695" type="curve" smooth="yes"/>
      <point x="75" y="695" type="line"/>
      <point x="75" y="0" type="line"/>
      <point x="302" y="0" type="line" smooth="yes"/>
      <point x="525" y="0"/>
      <point x="671" y="131"/>
      <point x="671" y="345" type="curve" smooth="yes"/>
      <point x="671" y="560"/>
    </contour>
    <contour>
      <point x="302" y="93" type="curve" smooth="yes"/>
      <point x="189" y="93" type="line"/>
      <point x="189" y="602" type="line"/>
      <point x="302" y="602" type="line" smooth="yes"/>
      <point x="466" y="602"/>
      <point x="554" y="504"/>
      <point x="554" y="345" type="curve" smooth="yes"/>
      <point x="554" y="187"/>
      <point x="466" y="93"/>
    </contour>
    <contour>
      <point x="355" y="696" type="move" name="top"/>
    </contour>
  </outline>
</glyph>
<glyph name="E" format="1">
  <advance width="522"/>
  <unicode hex="0045"/>
  <outline>
    <contour>
      <point x="459" y="603" type="line"/>
      <point x="459" y="696" type="line"/>
      <point x="75" y="696" type="line"/>
      <point x="75" y="0" type="line"/>
      <point x="459" y="0" type="line"/>
      <point x="459" y="93" type="line"/>
      <point x="189" y="93" type="line"/>
      <point x="189" y="306" type="line"/>
      <point x="429" y="306" type="line"/>
      <point x="429" y="399" type="line"/>
      <point x="189" y="399" type="line"/>
      <point x="189" y="603" type="line"/>
    </contour>
    <contour>
      <point x="262" y="0" type="move" name="bottom"/>
    </contour>
    <contour>
      <point x="459" y="0" type="move" name="ogonek"/>
    </contour>
    <contour>
      <point x="262" y="696" type="move" name="top"/>
    </contour>
  </outline>
</glyph>
<glyph name="F" format="1">
  <advance width="507"/>
  <unicode hex="0046"/>
  <outline>
    <contour>
      <point x="75" y="695" type="line"/>
      <point x="75" y="0" type="line"/>
      <point x="189" y="0" type="line"/>
      <point x="189" y="304" type="line"/>
      <point x="366" y="304" type="line"/>
      <point x="427" y="397" type="line"/>
      <point x="189" y="397" type="line"/>
      <point x="189" y="602" type="line"/>
      <point x="484" y="602" type="line"/>
      <point x="484" y="695" type="line"/>
    </contour>
  </outline>
</glyph>
<glyph name="G" format="1">
  <advance width="775"/>
  <unicode hex="0047"/>
  <outline>
    <contour>
      <point x="715" y="495" type="line"/>
      <point x="662" y="631"/>
      <point x="537" y="704"/>
      <point x="392" y="704" type="curve" smooth="yes"/>
      <point x="196" y="704"/>
      <point x="37" y="557"/>
      <point x="37" y="349" type="curve" smooth="yes"/>
      <point x="37" y="140"/>
      <point x="196" y="-6"/>
      <point x="392" y="-6" type="curve" smooth="yes"/>
      <point x="579" y="-6"/>
      <point x="715" y="131"/>
      <point x="736" y="292" type="curve"/>
      <point x="736" y="381" type="line"/>
      <point x="413" y="381" type="line"/>
      <point x="353" y="290" type="line"/>
      <point x="614" y="290" type="line"/>
      <point x="597" y="173"/>
      <point x="518" y="97"/>
      <point x="392" y="97" type="curve" smooth="yes"/>
      <point x="254" y="97"/>
      <point x="154" y="196"/>
      <point x="154" y="349" type="curve" smooth="yes"/>
      <point x="154" y="502"/>
      <point x="254" y="600"/>
      <point x="392" y="600" type="curve" smooth="yes"/>
      <point x="475" y="600"/>
      <point x="541" y="565"/>
      <point x="578" y="495" type="curve"/>
    </contour>
    <contour>
      <point x="386" y="0" type="move" name="bottom"/>
    </contour>
    <contour>
      <point x="386" y="696" type="move" name="top"/>
    </contour>
  </outline>
</glyph>
<glyph name="H" format="1">
  <advance width="705"/>
  <unicode hex="0048"/>
  <outline>
    <contour>
      <point x="75" y="695" type="line"/>
      <point x="75" y="0" type="line"/>
      <point x="189" y="0" type="line"/>
      <point x="189" y="695" type="line"/>
    </contour>
    <contour>
      <point x="516" y="695" type="line"/>
      <point x="516" y="0" type="line"/>
      <point x="630" y="0" type="line"/>
      <point x="630" y="695" type="line"/>
    </contour>
    <contour>
      <point x="169" y="397" type="line"/>
      <point x="169" y="304" type="line"/>
      <point x="543" y="304" type="line"/>
      <point x="543" y="397" type="line"/>
    </contour>
  </outline>
</glyph>
<glyph name="J" format="1">
  <advance width="495"/>
  <unicode hex="004A"/>
  <outline>
    <contour>
      <point x="305" y="695" type="line"/>
      <point x="305" y="194" type="line" smooth="yes"/>
      <point x="305" y="136"/>
      <point x="276" y="94"/>
      <point x="215" y="94" type="curve" smooth="yes"/>
      <point x="154" y="94"/>
      <point x="126" y="136"/>
      <point x="125" y="194" type="curve"/>
      <point x="10" y="194" type="line"/>
      <point x="10" y="68"/>
      <point x="95" y="-7"/>
      <point x="215" y="-7" type="curve" smooth="yes"/>
      <point x="335" y="-7"/>
      <point x="420" y="68"/>
      <point x="420" y="194" type="curve" smooth="yes"/>
      <point x="420" y="695" type="line"/>
    </contour>
  </outline>
</glyph>
<glyph name="K" format="1">
  <advance width="617"/>
  <unicode hex="004B"/>
  <outline>
    <contour>
      <point x="75" y="695" type="line"/>
      <point x="75" y="0" type="line"/>
      <point x="189" y="0" type="line"/>
      <point x="189" y="695" type="line"/>
    </contour>
    <contour>
      <point x="479" y="695" type="line"/>
      <point x="204" y="344" type="line"/>
      <point x="472" y="0" type="line"/>
      <point x="617" y="0" type="line"/>
      <point x="325" y="360" type="line"/>
      <point x="314" y="321" type="line"/>
      <point x="612" y="695" type="line"/>
    </contour>
    <contour>
      <point x="317" y="0" type="move" name="bottom"/>
    </contour>
    <contour>
      <point x="317" y="696" type="move" name="top"/>
    </contour>
  </outline>
</glyph>
<glyph name="L" format="1">
  <advance width="434"/>
  <unicode hex="004C"/>
  <outline>
    <contour>
      <point x="189" y="695" type="line"/>
      <point x="75" y="695" type="line"/>
      <point x="75" y="0" type="line"/>
      <point x="424" y="0" type="line"/>
      <point x="424" y="92" type="line"/>
      <point x="189" y="92" type="line"/>
    </contour>
    <contour>
      <point x="248" y="0" type="move" name="bottom"/>
    </contour>
    <contour>
      <point x="248" y="10" type="move" name="commaaccent"/>
    </contour>
    <contour>
      <point x="222" y="696" type="move" name="top"/>
    </contour>
    <contour>
      <point x="424" y="696" type="move" name="topright"/>
    </contour>
  </outline>
</glyph>
<glyph name="N" format="1">
  <advance width="721"/>
  <unicode hex="004E"/>
  <outline>
    <contour>
      <point x="571" y="0" type="line"/>
      <point x="271" y="696" type="line"/>
      <point x="161" y="696" type="line"/>
      <point x="460" y="0" type="line"/>
    </contour>
    <contour>
      <point x="532" y="0" type="line"/>
      <point x="646" y="0" type="line"/>
      <point x="646" y="696" type="line"/>
      <point x="532" y="696" type="line"/>
    </contour>
    <contour>
      <point x="189" y="696" type="line"/>
      <point x="75" y="696" type="line"/>
      <point x="75" y="0" type="line"/>
      <point x="189" y="0" type="line"/>
    </contour>
    <contour>
      <point x="361" y="0" type="move" name="bottom"/>
    </contour>
    <contour>
      <point x="361" y="696" type="move" name="top"/>
    </contour>
  </outline>
</glyph>
<glyph name="O" format="1">
  <advance width="784"/>
  <unicode hex="004F"/>
  <outline>
    <contour>
      <point x="392" y="-7" type="curve" smooth="yes"/>
      <point x="590" y="-7"/>
      <point x="747" y="140"/>
      <point x="747" y="349" type="curve" smooth="yes"/>
      <point x="747" y="557"/>
      <point x="590" y="704"/>
      <point x="392" y="704" type="curve" smooth="yes"/>
      <point x="196" y="704"/>
      <point x="37" y="557"/>
      <point x="37" y="349" type="curve" smooth="yes"/>
      <point x="37" y="140"/>
      <point x="196" y="-7"/>
    </contour>
    <contour>
      <point x="392" y="92" type="curve" smooth="yes"/>
      <point x="254" y="92"/>
      <point x="154" y="192"/>
      <point x="154" y="349" type="curve" smooth="yes"/>
      <point x="154" y="506"/>
      <point x="254" y="604"/>
      <point x="392" y="604" type="curve" smooth="yes"/>
      <point x="530" y="604"/>
      <point x="630" y="506"/>
      <point x="630" y="349" type="curve" smooth="yes"/>
      <point x="630" y="192"/>
      <point x="530" y="92"/>
    </contour>
    <contour>
      <point x="392" y="696" type="move" name="top"/>
    </contour>
  </outline>
</glyph>
<glyph name="P" format="1">
  <advance width="595"/>
  <unicode hex="0050"/>
  <outline>
    <contour>
      <point x="315" y="375" type="curve" smooth="yes"/>
      <point x="189" y="375" type="line"/>
      <point x="189" y="602" type="line"/>
      <point x="315" y="602" type="line" smooth="yes"/>
      <point x="404" y="602"/>
      <point x="444" y="560"/>
      <point x="444" y="488" type="curve" smooth="yes"/>
      <point x="444" y="418"/>
      <point x="404" y="375"/>
    </contour>
    <contour>
      <point x="561" y="389"/>
      <point x="561" y="488" type="curve" smooth="yes"/>
      <point x="561" y="601"/>
      <point x="480" y="695"/>
      <point x="315" y="695" type="curve" smooth="yes"/>
      <point x="75" y="695" type="line"/>
      <point x="75" y="0" type="line"/>
      <point x="189" y="0" type="line"/>
      <point x="189" y="282" type="line"/>
      <point x="315" y="282" type="line" smooth="yes"/>
      <point x="496" y="282"/>
    </contour>
  </outline>
</glyph>
<glyph name="R" format="1">
  <advance width="617"/>
  <unicode hex="0052"/>
  <outline>
    <contour>
      <point x="444" y="557"/>
      <point x="444" y="487" type="curve" smooth="yes"/>
      <point x="444" y="418"/>
      <point x="404" y="369"/>
      <point x="315" y="369" type="curve" smooth="yes"/>
      <point x="189" y="369" type="line"/>
      <point x="189" y="602" type="line"/>
      <point x="315" y="602" type="line" smooth="yes"/>
      <point x="404" y="602"/>
    </contour>
    <contour>
      <point x="315" y="695" type="curve" smooth="yes"/>
      <point x="75" y="695" type="line"/>
      <point x="75" y="0" type="line"/>
      <point x="189" y="0" type="line"/>
      <point x="189" y="278" type="line"/>
      <point x="315" y="278" type="line" smooth="yes"/>
      <point x="496" y="278"/>
      <point x="561" y="388"/>
      <point x="561" y="487" type="curve" smooth="yes"/>
      <point x="561" y="600"/>
      <point x="480" y="695"/>
    </contour>
    <contour>
      <point x="384" y="315" type="line"/>
      <point x="255" y="315" type="line"/>
      <point x="436" y="0" type="line"/>
      <point x="572" y="0" type="line"/>
    </contour>
    <contour>
      <point x="316" y="0" type="move" name="bottom"/>
    </contour>
    <contour>
      <point x="316" y="696" type="move" name="top"/>
    </contour>
  </outline>
</glyph>
<glyph name="S" format="1">
  <advance width="602"/>
  <unicode hex="0053"/>
  <outline>
    <contour>
      <point x="304" y="-7" type="curve" smooth="yes"/>
      <point x="459" y="-7"/>
      <point x="544" y="93"/>
      <point x="544" y="197" type="curve" smooth="yes"/>
      <point x="544" y="451"/>
      <point x="176" y="353"/>
      <point x="176" y="510" type="curve" smooth="yes"/>
      <point x="176" y="577"/>
      <point x="227" y="609"/>
      <point x="293" y="607" type="curve" smooth="yes"/>
      <point x="365" y="605"/>
      <point x="406" y="562"/>
      <point x="410" y="515" type="curve"/>
      <point x="536" y="515" type="line"/>
      <point x="526" y="634"/>
      <point x="432" y="704"/>
      <point x="299" y="704" type="curve" smooth="yes"/>
      <point x="157" y="704"/>
      <point x="60" y="628"/>
      <point x="60" y="506" type="curve" smooth="yes"/>
      <point x="60" y="250"/>
      <point x="429" y="359"/>
      <point x="429" y="191" type="curve" smooth="yes"/>
      <point x="429" y="132"/>
      <point x="384" y="89"/>
      <point x="304" y="89" type="curve" smooth="yes"/>
      <point x="225" y="89"/>
      <point x="185" y="135"/>
      <point x="180" y="192" type="curve"/>
      <point x="58" y="192" type="line"/>
      <point x="58" y="69"/>
      <point x="165" y="-7"/>
    </contour>
    <contour>
      <point x="304" y="-7" type="move" name="bottom"/>
    </contour>
    <contour>
      <point x="299" y="704" type="move" name="top"/>
    </contour>
  </outline>
</glyph>
<glyph name="T" format="1">
  <advance width="545"/>
  <unicode hex="0054"/>
  <outline>
    <contour>
      <point x="30" y="695" type="line"/>
      <point x="30" y="602" type="line"/>
      <point x="216" y="602" type="line"/>
      <point x="216" y="0" type="line"/>
      <point x="330" y="0" type="line"/>
      <point x="330" y="602" type="line"/>
      <point x="515" y="602" type="line"/>
      <point x="515" y="695" type="line"/>
    </contour>
    <contour>
      <point x="271" y="0" type="move" name="bottom"/>
    </contour>
    <contour>
      <point x="273" y="696" type="move" name="top"/>
    </contour>
  </outline>
</glyph>
<glyph name="U" format="1">
  <advance width="693"/>
  <unicode hex="0055"/>
  <outline>
    <contour>
      <point x="75" y="695" type="line"/>
      <point x="75" y="254" type="line" smooth="yes"/>
      <point x="75" y="77"/>
      <point x="199" y="-7"/>
      <point x="345" y="-7" type="curve" smooth="yes"/>
      <point x="490" y="-7"/>
      <point x="618" y="77"/>
      <point x="618" y="254" type="curve" smooth="yes"/>
      <point x="618" y="695" type="line"/>
      <point x="504" y="695" type="line"/>
      <point x="504" y="252" type="line" smooth="yes"/>
      <point x="504" y="144"/>
      <point x="443" y="93"/>
      <point x="346" y="93" type="curve" smooth="yes"/>
      <point x="250" y="93"/>
      <point x="189" y="144"/>
      <point x="189" y="252" type="curve" smooth="yes"/>
      <point x="189" y="695" type="line"/>
    </contour>
    <contour>
      <point x="419" y="0" type="move" name="ogonek"/>
    </contour>
    <contour>
      <point x="346" y="696" type="move" name="top"/>
    </contour>
  </outline>
</glyph>
<glyph name="X" format="1">
  <advance width="621"/>
  <unicode hex="0058"/>
  <outline>
    <contour>
      <point x="30" y="695" type="line"/>
      <point x="462" y="0" type="line"/>
      <point x="590" y="0" type="line"/>
      <point x="158" y="695" type="line"/>
    </contour>
    <contour>
      <point x="327" y="290" type="line"/>
      <point x="266" y="378" type="line"/>
      <point x="31" y="0" type="line"/>
      <point x="158" y="0" type="line"/>
    </contour>
    <contour>
      <point x="295" y="405" type="line"/>
      <point x="356" y="317" type="line"/>
      <point x="591" y="695" type="line"/>
      <point x="464" y="695" type="line"/>
    </contour>
  </outline>
</glyph>
<glyph name="Y" format="1">
  <advance width="595"/>
  <unicode hex="0059"/>
  <outline>
    <contour>
      <point x="10" y="695" type="line"/>
      <point x="241" y="252" type="line"/>
      <point x="241" y="0" type="line"/>
      <point x="355" y="0" type="line"/>
      <point x="355" y="252" type="line"/>
      <point x="585" y="695" type="line"/>
      <point x="459" y="695" type="line"/>
      <point x="273" y="300" type="line"/>
      <point x="324" y="300" type="line"/>
      <point x="137" y="695" type="line"/>
    </contour>
    <contour>
      <point x="298" y="696" type="move" name="top"/>
    </contour>
  </outline>
</glyph>
<glyph name="Z" format="1">
  <advance width="558"/>
  <unicode hex="005A"/>
  <outline>
    <contour>
      <point x="508" y="606" type="line"/>
      <point x="508" y="695" type="line"/>
      <point x="50" y="695" type="line"/>
      <point x="50" y="596" type="line"/>
      <point x="372" y="596" type="line"/>
      <point x="50" y="89" type="line"/>
      <point x="50" y="0" type="line"/>
      <point x="508" y="0" type="line"/>
      <point x="508" y="99" type="line"/>
      <point x="185" y="99" type="line"/>
    </contour>
    <contour>
      <point x="279" y="696" type="move" name="top"/>
    </contour>
  </outline>
</glyph>
<glyph name="bracketleft" format="1">
  <advance width="485"/>
  <unicode hex="005B"/>
  <outline>
    <contour>
      <point x="148" y="934" type="line"/>
      <point x="148" y="-186" type="line"/>
      <point x="356" y="-186" type="line"/>
      <point x="356" y="-91" type="line"/>
      <point x="255" y="-91" type="line"/>
      <point x="255" y="840" type="line"/>
      <point x="356" y="840" type="line"/>
      <point x="356" y="934" type="line"/>
    </contour>
  </outline>
</glyph>
<glyph name="backslash" format="1">
  <advance width="717"/>
  <unicode hex="005C"/>
  <outline>
    <contour>
      <point x="576" y="-175" type="line"/>
      <point x="276" y="944" type="line"/>
      <point x="164" y="944" type="line"/>
      <point x="464" y="-175" type="line"/>
    </contour>
  </outline>
</glyph>
<glyph name="asciicircum" format="1">
  <advance width="654"/>
  <unicode hex="005E"/>
  <outline>
    <contour>
      <point x="328" y="558" type="line"/>
      <point x="500" y="168" type="line"/>
      <point x="619" y="168" type="line"/>
      <point x="381" y="696" type="line"/>
      <point x="273" y="696" type="line"/>
      <point x="36" y="168" type="line"/>
      <point x="154" y="168" type="line"/>
    </contour>
  </outline>
</glyph>
<glyph name="underscore" format="1">
  <advance width="798"/>
  <unicode hex="005F"/>
  <outline>
    <contour>
      <point x="126" y="-40" type="line"/>
      <point x="126" y="-146" type="line"/>
      <point x="684" y="-146" type="line"/>
      <point x="684" y="-40" type="line"/>
    </contour>
  </outline>
</glyph>
<glyph name="a" format="1">
  <advance width="597"/>
  <unicode hex="0061"/>
  <outline>
    <contour>
      <point x="423" y="80" type="curve"/>
      <point x="423" y="0" type="line"/>
      <point x="539" y="0" type="line"/>
      <point x="539" y="323" type="line" smooth="yes"/>
      <point x="539" y="473"/>
      <point x="433" y="561"/>
      <point x="303" y="561" type="curve" smooth="yes"/>
      <point x="165" y="561"/>
      <point x="75" y="475"/>
      <point x="59" y="356" type="curve"/>
      <point x="171" y="356" type="line"/>
      <point x="183" y="423"/>
      <point x="230" y="462"/>
      <point x="298" y="462" type="curve" smooth="yes"/>
      <point x="375" y="462"/>
      <point x="420" y="407"/>
      <point x="423" y="331" type="curve"/>
      <point x="267" y="331" type="line" smooth="yes"/>
      <point x="111" y="331"/>
      <point x="45" y="249"/>
      <point x="45" y="155" type="curve" smooth="yes"/>
      <point x="45" y="60"/>
      <point x="124" y="-10"/>
      <point x="232" y="-10" type="curve" smooth="yes"/>
      <point x="316" y="-10"/>
      <point x="391" y="32"/>
    </contour>
    <contour>
      <point x="256" y="90" type="curve" smooth="yes"/>
      <point x="196" y="90"/>
      <point x="162" y="120"/>
      <point x="162" y="164" type="curve" smooth="yes"/>
      <point x="162" y="205"/>
      <point x="191" y="239"/>
      <point x="267" y="239" type="curve" smooth="yes"/>
      <point x="423" y="239" type="line"/>
      <point x="423" y="238" type="line"/>
      <point x="423" y="136"/>
      <point x="329" y="90"/>
    </contour>
    <contour>
      <point x="539" y="0" type="move" name="ogonek"/>
    </contour>
    <contour>
      <point x="303" y="567" type="move" name="top"/>
    </contour>
  </outline>
</glyph>
<glyph name="b" format="1">
  <advance width="678"/>
  <unicode hex="0062"/>
  <outline>
    <contour>
      <point x="225" y="519"/>
      <point x="189" y="469" type="curve"/>
      <point x="189" y="740" type="line"/>
      <point x="75" y="740" type="line"/>
      <point x="75" y="0" type="line"/>
      <point x="189" y="0" type="line"/>
      <point x="189" y="80" type="line"/>
      <point x="225" y="32"/>
      <point x="290" y="-9"/>
      <point x="381" y="-9" type="curve" smooth="yes"/>
      <point x="526" y="-9"/>
      <point x="640" y="108"/>
      <point x="640" y="278" type="curve" smooth="yes"/>
      <point x="640" y="448"/>
      <point x="527" y="560"/>
      <point x="381" y="560" type="curve" smooth="yes"/>
      <point x="294" y="560"/>
    </contour>
    <contour>
      <point x="524" y="397"/>
      <point x="524" y="278" type="curve" smooth="yes"/>
      <point x="524" y="159"/>
      <point x="442" y="90"/>
      <point x="356" y="90" type="curve" smooth="yes"/>
      <point x="271" y="90"/>
      <point x="189" y="157"/>
      <point x="189" y="276" type="curve" smooth="yes"/>
      <point x="189" y="394"/>
      <point x="271" y="461"/>
      <point x="356" y="461" type="curve" smooth="yes"/>
      <point x="442" y="461"/>
    </contour>
  </outline>
</glyph>
<glyph name="c" format="1">
  <advance width="589"/>
  <unicode hex="0063"/>
  <outline>
    <contour>
      <point x="38" y="448"/>
      <point x="38" y="276" type="curve" smooth="yes"/>
      <point x="38" y="103"/>
      <point x="150" y="-9"/>
      <point x="308" y="-9" type="curve" smooth="yes"/>
      <point x="443" y="-9"/>
      <point x="531" y="66"/>
      <point x="562" y="174" type="curve"/>
      <point x="439" y="174" type="line"/>
      <point x="418" y="117"/>
      <point x="376" y="87"/>
      <point x="308" y="87" type="curve" smooth="yes"/>
      <point x="216" y="87"/>
      <point x="155" y="155"/>
      <point x="155" y="276" type="curve" smooth="yes"/>
      <point x="155" y="396"/>
      <point x="216" y="464"/>
      <point x="308" y="464" type="curve" smooth="yes"/>
      <point x="376" y="464"/>
      <point x="420" y="430"/>
      <point x="439" y="377" type="curve"/>
      <point x="562" y="377" type="line"/>
      <point x="531" y="493"/>
      <point x="443" y="560"/>
      <point x="308" y="560" type="curve" smooth="yes"/>
      <point x="150" y="560"/>
    </contour>
    <contour>
      <point x="301" y="0" type="move" name="bottom"/>
    </contour>
    <contour>
      <point x="301" y="551" type="move" name="top"/>
    </contour>
  </outline>
</glyph>
<glyph name="d" format="1">
  <advance width="679"/>
  <unicode hex="0064"/>
  <outline>
    <contour>
      <point x="38" y="448"/>
      <point x="38" y="278" type="curve" smooth="yes"/>
      <point x="38" y="108"/>
      <point x="153" y="-9"/>
      <point x="298" y="-9" type="curve" smooth="yes"/>
      <point x="388" y="-9"/>
      <point x="454" y="33"/>
      <point x="489" y="83" type="curve"/>
      <point x="489" y="0" type="line"/>
      <point x="604" y="0" type="line"/>
      <point x="604" y="740" type="line"/>
      <point x="489" y="740" type="line"/>
      <point x="489" y="474" type="line"/>
      <point x="447" y="526"/>
      <point x="371" y="560"/>
      <point x="299" y="560" type="curve" smooth="yes"/>
      <point x="153" y="560"/>
    </contour>
    <contour>
      <point x="489" y="394"/>
      <point x="489" y="276" type="curve" smooth="yes"/>
      <point x="489" y="157"/>
      <point x="408" y="90"/>
      <point x="322" y="90" type="curve" smooth="yes"/>
      <point x="237" y="90"/>
      <point x="155" y="159"/>
      <point x="155" y="278" type="curve" smooth="yes"/>
      <point x="155" y="397"/>
      <point x="237" y="461"/>
      <point x="322" y="461" type="curve" smooth="yes"/>
      <point x="408" y="461"/>
    </contour>
    <contour>
      <point x="604" y="740" type="move" name="topright"/>
    </contour>
  </outline>
</glyph>
<glyph name="e" format="1">
  <advance width="619"/>
  <unicode hex="0065"/>
  <outline>
    <contour>
      <point x="137" y="325" type="line"/>
      <point x="136" y="233" type="line"/>
      <point x="577" y="233" type="line"/>
      <point x="580" y="252"/>
      <point x="581" y="270"/>
      <point x="581" y="289" type="curve" smooth="yes"/>
      <point x="581" y="451"/>
      <point x="470" y="560"/>
      <point x="313" y="560" type="curve" smooth="yes"/>
      <point x="150" y="560"/>
      <point x="38" y="449"/>
      <point x="38" y="276" type="curve" smooth="yes"/>
      <point x="38" y="103"/>
      <point x="155" y="-9"/>
      <point x="313" y="-9" type="curve" smooth="yes"/>
      <point x="448" y="-9"/>
      <point x="535" y="68"/>
      <point x="566" y="164" type="curve"/>
      <point x="443" y="164" type="line"/>
      <point x="422" y="121"/>
      <point x="383" y="87"/>
      <point x="313" y="87" type="curve" smooth="yes"/>
      <point x="224" y="87"/>
      <point x="155" y="150"/>
      <point x="155" y="251" type="curve" smooth="yes"/>
      <point x="155" y="295" type="line" smooth="yes"/>
      <point x="155" y="400"/>
      <point x="222" y="464"/>
      <point x="308" y="464" type="curve" smooth="yes"/>
      <point x="393" y="464"/>
      <point x="460" y="410"/>
      <point x="462" y="325" type="curve"/>
    </contour>
    <contour>
      <point x="310" y="0" type="move" name="bottom"/>
    </contour>
    <contour>
      <point x="419" y="14" type="move" name="ogonek"/>
    </contour>
    <contour>
      <point x="310" y="551" type="move" name="top"/>
    </contour>
  </outline>
</glyph>
<glyph name="f" format="1">
  <advance width="330"/>
  <unicode hex="0066"/>
  <outline>
    <contour>
      <point x="93" y="590" type="curve" smooth="yes"/>
      <point x="93" y="0" type="line"/>
      <point x="208" y="0" type="line"/>
      <point x="208" y="590" type="line" smooth="yes"/>
      <point x="208" y="653"/>
      <point x="232" y="677"/>
      <point x="302" y="677" type="curve"/>
      <point x="302" y="772" type="line"/>
      <point x="158" y="772"/>
      <point x="93" y="717"/>
    </contour>
    <contour>
      <point x="28" y="551" type="line"/>
      <point x="28" y="458" type="line"/>
      <point x="310" y="458" type="line"/>
      <point x="310" y="551" type="line"/>
    </contour>
  </outline>
</glyph>
<glyph name="g" format="1">
  <advance width="674"/>
  <unicode hex="0067"/>
  <outline>
    <contour>
      <point x="298" y="560" type="curve" smooth="yes"/>
      <point x="153" y="560"/>
      <point x="38" y="448"/>
      <point x="38" y="278" type="curve" smooth="yes"/>
      <point x="38" y="108"/>
      <point x="153" y="-9"/>
      <point x="298" y="-9" type="curve" smooth="yes"/>
      <point x="388" y="-9"/>
      <point x="454" y="36"/>
      <point x="489" y="83" type="curve"/>
      <point x="489" y="-9" type="line" smooth="yes"/>
      <point x="489" y="-119"/>
      <point x="423" y="-173"/>
      <point x="335" y="-173" type="curve" smooth="yes"/>
      <point x="256" y="-173"/>
      <point x="195" y="-134"/>
      <point x="178" y="-77" type="curve"/>
      <point x="65" y="-77" type="line"/>
      <point x="79" y="-199"/>
      <point x="188" y="-272"/>
      <point x="335" y="-272" type="curve" smooth="yes"/>
      <point x="507" y="-272"/>
      <point x="604" y="-159"/>
      <point x="604" y="-9" type="curve" smooth="yes"/>
      <point x="604" y="551" type="line"/>
      <point x="489" y="551" type="line"/>
      <point x="489" y="471" type="line"/>
      <point x="455" y="518"/>
      <point x="388" y="560"/>
    </contour>
    <contour>
      <point x="489" y="394"/>
      <point x="489" y="276" type="curve" smooth="yes"/>
      <point x="489" y="157"/>
      <point x="408" y="90"/>
      <point x="322" y="90" type="curve" smooth="yes"/>
      <point x="237" y="90"/>
      <point x="155" y="159"/>
      <point x="155" y="278" type="curve" smooth="yes"/>
      <point x="155" y="397"/>
      <point x="237" y="461"/>
      <point x="322" y="461" type="curve" smooth="yes"/>
      <point x="408" y="461"/>
    </contour>
    <contour>
      <point x="340" y="551" type="move" name="top"/>
    </contour>
  </outline>
</glyph>
<glyph name="h" format="1">
  <advance width="649"/>
  <unicode hex="0068"/>
  <outline>
    <contour>
      <point x="75" y="740" type="line"/>
      <point x="75" y="0" type="line"/>
      <point x="189" y="0" type="line"/>
      <point x="189" y="740" type="line"/>
    </contour>
    <contour>
      <point x="466" y="308" type="curve" smooth="yes"/>
      <point x="466" y="0" type="line"/>
      <point x="579" y="0" type="line"/>
      <point x="579" y="325" type="line" smooth="yes"/>
      <point x="579" y="479"/>
      <point x="483" y="560"/>
      <point x="360" y="560" type="curve" smooth="yes"/>
      <point x="264" y="560"/>
      <point x="183" y="510"/>
      <point x="159" y="432" type="curve"/>
      <point x="189" y="308" type="line"/>
      <point x="189" y="409"/>
      <point x="244" y="461"/>
      <point x="328" y="461" type="curve" smooth="yes"/>
      <point x="411" y="461"/>
      <point x="466" y="409"/>
    </contour>
  </outline>
</glyph>
<glyph name="k" format="1">
  <advance width="560"/>
  <unicode hex="006B"/>
  <outline>
    <contour>
      <point x="75" y="740" type="line"/>
      <point x="75" y="0" type="line"/>
      <point x="189" y="0" type="line"/>
      <point x="189" y="740" type="line"/>
    </contour>
    <contour>
      <point x="398" y="551" type="line"/>
      <point x="207" y="273" type="line"/>
      <point x="402" y="0" type="line"/>
      <point x="555" y="0" type="line"/>
      <point x="330" y="288" type="line"/>
      <point x="323" y="255" type="line"/>
      <point x="546" y="551" type="line"/>
    </contour>
    <contour>
      <point x="277" y="0" type="move" name="bottom"/>
    </contour>
  </outline>
</glyph>
<glyph name="m" format="1">
  <advance width="1039"/>
  <unicode hex="006D"/>
  <outline>
    <contour>
      <point x="75" y="551" type="line"/>
      <point x="75" y="0" type="line"/>
      <point x="189" y="0" type="line"/>
      <point x="189" y="551" type="line"/>
    </contour>
    <contour>
      <point x="466" y="308" type="curve" smooth="yes"/>
      <point x="466" y="0" type="line"/>
      <point x="579" y="0" type="line"/>
      <point x="579" y="325" type="line" smooth="yes"/>
      <point x="579" y="479"/>
      <point x="481" y="560"/>
      <point x="352" y="560" type="curve" smooth="yes"/>
      <point x="262" y="560"/>
      <point x="183" y="510"/>
      <point x="159" y="432" type="curve"/>
      <point x="189" y="308" type="line"/>
      <point x="189" y="409"/>
      <point x="244" y="461"/>
      <point x="328" y="461" type="curve" smooth="yes"/>
      <point x="411" y="461"/>
      <point x="466" y="409"/>
    </contour>
    <contour>
      <point x="856" y="308" type="curve" smooth="yes"/>
      <point x="856" y="0" type="line"/>
      <point x="969" y="0" type="line"/>
      <point x="969" y="325" type="line" smooth="yes"/>
      <point x="969" y="479"/>
      <point x="871" y="560"/>
      <point x="742" y="560" type="curve" smooth="yes"/>
      <point x="654" y="560"/>
      <point x="570" y="510"/>
      <point x="542" y="432" type="curve"/>
      <point x="579" y="308" type="line"/>
      <point x="579" y="409"/>
      <point x="634" y="461"/>
      <point x="718" y="461" type="curve" smooth="yes"/>
      <point x="801" y="461"/>
      <point x="856" y="409"/>
    </contour>
  </outline>
</glyph>
<glyph name="o" format="1">
  <advance width="638"/>
  <unicode hex="006F"/>
  <outline>
    <contour>
      <point x="314" y="-9" type="curve" smooth="yes"/>
      <point x="472" y="-9"/>
      <point x="600" y="103"/>
      <point x="600" y="276" type="curve" smooth="yes"/>
      <point x="600" y="449"/>
      <point x="476" y="560"/>
      <point x="319" y="560" type="curve" smooth="yes"/>
      <point x="162" y="560"/>
      <point x="38" y="449"/>
      <point x="38" y="276" type="curve" smooth="yes"/>
      <point x="38" y="103"/>
      <point x="157" y="-9"/>
    </contour>
    <contour>
      <point x="314" y="90" type="curve" smooth="yes"/>
      <point x="228" y="90"/>
      <point x="154" y="151"/>
      <point x="154" y="276" type="curve" smooth="yes"/>
      <point x="154" y="401"/>
      <point x="231" y="461"/>
      <point x="317" y="461" type="curve" smooth="yes"/>
      <point x="402" y="461"/>
      <point x="483" y="401"/>
      <point x="483" y="276" type="curve" smooth="yes"/>
      <point x="483" y="151"/>
      <point x="399" y="90"/>
    </contour>
    <contour>
      <point x="319" y="560" type="move" name="top"/>
    </contour>
  </outline>
</glyph>
<glyph name="p" format="1">
  <advance width="678"/>
  <unicode hex="0070"/>
  <outline>
    <contour>
      <point x="224" y="516"/>
      <point x="189" y="470" type="curve"/>
      <point x="189" y="551" type="line"/>
      <point x="75" y="551" type="line"/>
      <point x="75" y="-262" type="line"/>
      <point x="189" y="-262" type="line"/>
      <point x="189" y="80" type="line"/>
      <point x="225" y="37"/>
      <point x="290" y="-9"/>
      <point x="381" y="-9" type="curve" smooth="yes"/>
      <point x="526" y="-9"/>
      <point x="640" y="108"/>
      <point x="640" y="278" type="curve" smooth="yes"/>
      <point x="640" y="448"/>
      <point x="526" y="560"/>
      <point x="381" y="560" type="curve" smooth="yes"/>
      <point x="291" y="560"/>
    </contour>
    <contour>
      <point x="524" y="397"/>
      <point x="524" y="278" type="curve" smooth="yes"/>
      <point x="524" y="159"/>
      <point x="442" y="90"/>
      <point x="356" y="90" type="curve" smooth="yes"/>
      <point x="271" y="90"/>
      <point x="189" y="157"/>
      <point x="189" y="276" type="curve" smooth="yes"/>
      <point x="189" y="394"/>
      <point x="271" y="461"/>
      <point x="356" y="461" type="curve" smooth="yes"/>
      <point x="442" y="461"/>
    </contour>
  </outline>
</glyph>
<glyph name="q" format="1">
  <advance width="679"/>
  <unicode hex="0071"/>
  <outline>
    <contour>
      <point x="38" y="448"/>
      <point x="38" y="278" type="curve" smooth="yes"/>
      <point x="38" y="108"/>
      <point x="153" y="-9"/>
      <point x="295" y="-9" type="curve" smooth="yes"/>
      <point x="388" y="-9"/>
      <point x="457" y="37"/>
      <point x="489" y="80" type="curve"/>
      <point x="489" y="-262" type="line"/>
      <point x="604" y="-262" type="line"/>
      <point x="604" y="551" type="line"/>
      <point x="489" y="551" type="line"/>
      <point x="489" y="471" type="line"/>
      <point x="457" y="516"/>
      <point x="390" y="560"/>
      <point x="299" y="560" type="curve" smooth="yes"/>
      <point x="153" y="560"/>
    </contour>
    <contour>
      <point x="489" y="394"/>
      <point x="489" y="276" type="curve" smooth="yes"/>
      <point x="489" y="157"/>
      <point x="408" y="90"/>
      <point x="322" y="90" type="curve" smooth="yes"/>
      <point x="237" y="90"/>
      <point x="155" y="159"/>
      <point x="155" y="278" type="curve" smooth="yes"/>
      <point x="155" y="397"/>
      <point x="237" y="461"/>
      <point x="322" y="461" type="curve" smooth="yes"/>
      <point x="408" y="461"/>
    </contour>
  </outline>
</glyph>
<glyph name="r" format="1">
  <advance width="379"/>
  <unicode hex="0072"/>
  <outline>
    <contour>
      <point x="155" y="330" type="curve"/>
      <point x="189" y="290" type="line"/>
      <point x="189" y="407"/>
      <point x="241" y="442"/>
      <point x="325" y="442" type="curve" smooth="yes"/>
      <point x="354" y="442" type="line"/>
      <point x="354" y="560" type="line"/>
      <point x="220" y="560"/>
      <point x="155" y="459"/>
    </contour>
    <contour>
      <point x="75" y="551" type="line"/>
      <point x="75" y="0" type="line"/>
      <point x="189" y="0" type="line"/>
      <point x="189" y="551" type="line"/>
    </contour>
    <contour>
      <point x="132" y="0" type="move" name="bottom"/>
    </contour>
    <contour>
      <point x="241" y="551" type="move" name="top"/>
    </contour>
  </outline>
</glyph>
<glyph name="s" format="1">
  <advance width="530"/>
  <unicode hex="0073"/>
  <outline>
    <contour>
      <point x="273" y="-9" type="curve" smooth="yes"/>
      <point x="403" y="-9"/>
      <point x="484" y="61"/>
      <point x="484" y="154" type="curve" smooth="yes"/>
      <point x="478" y="353"/>
      <point x="167" y="291"/>
      <point x="167" y="402" type="curve" smooth="yes"/>
      <point x="167" y="439"/>
      <point x="199" y="464"/>
      <point x="260" y="464" type="curve" smooth="yes"/>
      <point x="322" y="464"/>
      <point x="359" y="431"/>
      <point x="363" y="383" type="curve"/>
      <point x="477" y="383" type="line"/>
      <point x="471" y="493"/>
      <point x="389" y="560"/>
      <point x="264" y="560" type="curve" smooth="yes"/>
      <point x="134" y="560"/>
      <point x="52" y="489"/>
      <point x="52" y="401" type="curve" smooth="yes"/>
      <point x="52" y="199"/>
      <point x="372" y="261"/>
      <point x="372" y="153" type="curve" smooth="yes"/>
      <point x="372" y="115"/>
      <point x="337" y="87"/>
      <point x="271" y="87" type="curve" smooth="yes"/>
      <point x="208" y="87"/>
      <point x="165" y="124"/>
      <point x="161" y="169" type="curve"/>
      <point x="43" y="169" type="line"/>
      <point x="48" y="69"/>
      <point x="141" y="-9"/>
    </contour>
    <contour>
      <point x="265" y="0" type="move" name="bottom"/>
    </contour>
    <contour>
      <point x="264" y="560" type="move" name="top"/>
    </contour>
  </outline>
</glyph>
<glyph name="t" format="1">
  <advance width="372"/>
  <unicode hex="0074"/>
  <outline>
    <contour>
      <point x="93" y="627" type="line"/>
      <point x="93" y="153" type="line" smooth="yes"/>
      <point x="93" y="41"/>
      <point x="154" y="0"/>
      <point x="252" y="0" type="curve" smooth="yes"/>
      <point x="342" y="0" type="line"/>
      <point x="342" y="95" type="line"/>
      <point x="272" y="95" type="line" smooth="yes"/>
      <point x="224" y="95"/>
      <point x="208" y="112"/>
      <point x="208" y="153" type="curve" smooth="yes"/>
      <point x="208" y="724" type="line"/>
    </contour>
    <contour>
      <point x="28" y="458" type="line"/>
      <point x="342" y="458" type="line"/>
      <point x="342" y="551" type="line"/>
      <point x="28" y="551" type="line"/>
    </contour>
    <contour>
      <point x="187" y="0" type="move" name="bottom"/>
    </contour>
    <contour>
      <point x="203" y="828" type="move" name="topright"/>
    </contour>
  </outline>
</glyph>
<glyph name="u" format="1">
  <advance width="649"/>
  <unicode hex="0075"/>
  <outline>
    <contour>
      <point x="574" y="0" type="line"/>
      <point x="574" y="551" type="line"/>
      <point x="460" y="551" type="line"/>
      <point x="460" y="0" type="line"/>
    </contour>
    <contour>
      <point x="184" y="244" type="curve" smooth="yes"/>
      <point x="184" y="551" type="line"/>
      <point x="70" y="551" type="line"/>
      <point x="70" y="227" type="line" smooth="yes"/>
      <point x="70" y="73"/>
      <point x="168" y="-8"/>
      <point x="297" y="-8" type="curve" smooth="yes"/>
      <point x="385" y="-8"/>
      <point x="466" y="42"/>
      <point x="488" y="120" type="curve"/>
      <point x="460" y="244" type="line"/>
      <point x="460" y="143"/>
      <point x="405" y="91"/>
      <point x="321" y="91" type="curve" smooth="yes"/>
      <point x="238" y="91"/>
      <point x="184" y="143"/>
    </contour>
    <contour>
      <point x="574" y="-1" type="move" name="ogonek"/>
    </contour>
    <contour>
      <point x="325" y="551" type="move" name="top"/>
    </contour>
  </outline>
</glyph>
<glyph name="v" format="1">
  <advance width="568"/>
  <unicode hex="0076"/>
  <outline>
    <contour>
      <point x="128" y="551" type="line"/>
      <point x="7" y="551" type="line"/>
      <point x="206" y="0" type="line"/>
      <point x="362" y="0" type="line"/>
      <point x="561" y="551" type="line"/>
      <point x="440" y="551" type="line"/>
      <point x="265" y="16" type="line"/>
      <point x="303" y="16" type="line"/>
    </contour>
  </outline>
</glyph>
<glyph name="w" format="1">
  <advance width="825"/>
  <unicode hex="0077"/>
  <outline>
    <contour>
      <point x="7" y="551" type="line"/>
      <point x="167" y="0" type="line"/>
      <point x="314" y="0" type="line"/>
      <point x="437" y="489" type="line"/>
      <point x="388" y="489" type="line"/>
      <point x="511" y="0" type="line"/>
      <point x="658" y="0" type="line"/>
      <point x="818" y="551" type="line"/>
      <point x="701" y="551" type="line"/>
      <point x="578" y="36" type="line"/>
      <point x="596" y="36" type="line"/>
      <point x="472" y="551" type="line"/>
      <point x="353" y="551" type="line"/>
      <point x="230" y="36" type="line"/>
      <point x="248" y="36" type="line"/>
      <point x="124" y="551" type="line"/>
    </contour>
  </outline>
</glyph>
<glyph name="y" format="1">
  <advance width="565"/>
  <unicode hex="0079"/>
  <outline>
    <contour>
      <point x="445" y="551" type="line"/>
      <point x="284" y="131" type="line"/>
      <point x="129" y="551" type="line"/>
      <point x="2" y="551" type="line"/>
      <point x="219" y="9" type="line"/>
      <point x="107" y="-259" type="line"/>
      <point x="225" y="-259" type="line"/>
      <point x="563" y="551" type="line"/>
    </contour>
    <contour>
      <point x="283" y="551" type="move" name="top"/>
    </contour>
  </outline>
</glyph>
<glyph name="z" format="1">
  <advance width="472"/>
  <unicode hex="007A"/>
  <outline>
    <contour>
      <point x="427" y="458" type="line"/>
      <point x="427" y="551" type="line"/>
      <point x="45" y="551" type="line"/>
      <point x="45" y="458" type="line"/>
      <point x="296" y="458" type="line"/>
      <point x="45" y="93" type="line"/>
      <point x="45" y="0" type="line"/>
      <point x="427" y="0" type="line"/>
      <point x="427" y="93" type="line"/>
      <point x="177" y="93" type="line"/>
    </contour>
    <contour>
      <point x="237" y="551" type="move" name="top"/>
    </contour>
  </outline>
</glyph>
<glyph name="bar" format="1">
  <advance width="324"/>
  <unicode hex="007C"/>
  <outline>
    <contour>
      <point x="219" y="801" type="line"/>
      <point x="105" y="801" type="line"/>
      <point x="105" y="-113" type="line"/>
      <point x="219" y="-113" type="line"/>
    </contour>
  </outline>
</glyph>
<glyph name="dieresis" format="1">
  <advance width="312"/>
  <unicode hex="00A8"/>
  <outline>
    <contour>
      <point x="14" y="615"/>
      <point x="55" y="615" type="curve" smooth="yes"/>
      <point x="94" y="615"/>
      <point x="127" y="646"/>
      <point x="127" y="687" type="curve" smooth="yes"/>
      <point x="127" y="727"/>
      <point x="94" y="759"/>
      <point x="55" y="759" type="curve" smooth="yes"/>
      <point x="14" y="759"/>
      <point x="-17" y="727"/>
      <point x="-17" y="687" type="curve" smooth="yes"/>
      <point x="-17" y="646"/>
    </contour>
    <contour>
      <point x="216" y="615"/>
      <point x="257" y="615" type="curve" smooth="yes"/>
      <point x="297" y="615"/>
      <point x="329" y="646"/>
      <point x="329" y="687" type="curve" smooth="yes"/>
      <point x="329" y="727"/>
      <point x="297" y="759"/>
      <point x="257" y="759" type="curve" smooth="yes"/>
      <point x="216" y="759"/>
      <point x="185" y="727"/>
      <point x="185" y="687" type="curve" smooth="yes"/>
      <point x="185" y="646"/>
    </contour>
    <contour>
      <point x="156" y="551" type="move" name="_top"/>
    </contour>
  </outline>
</glyph>
<glyph name="guillemotleft" format="1">
  <advance width="509"/>
  <unicode hex="00AB"/>
  <outline>
    <contour>
      <point x="257" y="96" type="line"/>
      <point x="156" y="280" type="line"/>
      <point x="257" y="464" type="line"/>
      <point x="142" y="464" type="line"/>
      <point x="45" y="280" type="line"/>
      <point x="142" y="96" type="line"/>
    </contour>
    <contour>
      <point x="459" y="96" type="line"/>
      <point x="358" y="280" type="line"/>
      <point x="459" y="464" type="line"/>
      <point x="343" y="464" type="line"/>
      <point x="247" y="280" type="line"/>
      <point x="343" y="96" type="line"/>
    </contour>
  </outline>
</glyph>
<glyph name="logicalnot" format="1">
  <advance width="649"/>
  <unicode hex="00AC"/>
  <outline>
    <contour>
      <point x="37" y="435" type="line"/>
      <point x="37" y="346" type="line"/>
      <point x="491" y="346" type="line"/>
      <point x="491" y="208" type="line"/>
      <point x="605" y="208" type="line"/>
      <point x="605" y="435" type="line"/>
    </contour>
  </outline>
</glyph>
<glyph name="macron" format="1">
  <advance width="386"/>
  <unicode hex="00AF"/>
  <outline>
    <contour>
      <point x="10" y="720" type="line"/>
      <point x="10" y="635" type="line"/>
      <point x="376" y="635" type="line"/>
      <point x="376" y="720" type="line"/>
    </contour>
    <contour>
      <point x="193" y="551" type="move" name="_top"/>
    </contour>
  </outline>
</glyph>
<glyph name="plusminus" format="1">
  <advance width="717"/>
  <unicode hex="00B1"/>
  <outline>
    <contour>
      <point x="412" y="621" type="line"/>
      <point x="306" y="621" type="line"/>
      <point x="306" y="166" type="line"/>
      <point x="412" y="166" type="line"/>
    </contour>
    <contour>
      <point x="104" y="468" type="line"/>
      <point x="104" y="372" type="line"/>
      <point x="613" y="372" type="line"/>
      <point x="613" y="468" type="line"/>
    </contour>
    <contour>
      <point x="104" y="223" type="line"/>
      <point x="104" y="127" type="line"/>
      <point x="613" y="127" type="line"/>
      <point x="613" y="223" type="line"/>
    </contour>
  </outline>
</glyph>
<glyph name="acute" format="1">
  <advance width="241"/>
  <unicode hex="00B4"/>
  <outline>
    <contour>
      <point x="231" y="802" type="line"/>
      <point x="10" y="680" type="line"/>
      <point x="10" y="576" type="line"/>
      <point x="231" y="685" type="line"/>
    </contour>
    <contour>
      <point x="128" y="551" type="move" name="_top"/>
    </contour>
  </outline>
</glyph>
<glyph name="cedilla" format="1">
  <advance width="279"/>
  <unicode hex="00B8"/>
  <outline>
    <contour>
      <point x="-48" y="-154" type="line"/>
      <point x="80" y="-154" type="line"/>
      <point x="139" y="-3" type="line"/>
      <point x="45" y="-3" type="line"/>
    </contour>
    <contour>
      <point x="98" y="0" type="move" name="_bottom"/>
    </contour>
  </outline>
</glyph>
<glyph name="onesuperior" format="1">
  <advance width="209"/>
  <unicode hex="00B9"/>
  <outline>
    <contour>
      <point x="74" y="636" type="line"/>
      <point x="74" y="352" type="line"/>
      <point x="163" y="352" type="line"/>
      <point x="163" y="704" type="line"/>
      <point x="20" y="704" type="line"/>
      <point x="20" y="636" type="line"/>
    </contour>
  </outline>
</glyph>
<glyph name="guillemotright" format="1">
  <advance width="509"/>
  <unicode hex="00BB"/>
  <outline>
    <contour>
      <point x="252" y="96" type="line"/>
      <point x="366" y="96" type="line"/>
      <point x="464" y="280" type="line"/>
      <point x="366" y="464" type="line"/>
      <point x="252" y="464" type="line"/>
      <point x="352" y="280" type="line"/>
    </contour>
    <contour>
      <point x="50" y="96" type="line"/>
      <point x="165" y="96" type="line"/>
      <point x="262" y="280" type="line"/>
      <point x="165" y="464" type="line"/>
      <point x="50" y="464" type="line"/>
      <point x="150" y="280" type="line"/>
    </contour>
  </outline>
</glyph>
<glyph name="onehalf" format="1">
  <advance width="701"/>
  <unicode hex="00BD"/>
  <outline>
    <contour>
      <point x="434" y="696" type="line"/>
      <point x="63" y="0" type="line"/>
      <point x="171" y="0" type="line"/>
      <point x="542" y="696" type="line"/>
    </contour>
    <component base="onesuperior" xOffset="14"/>
    <component base="twosuperior" xOffset="359" yOffset="-353"/>
  </outline>
</glyph>
<glyph name="AE" format="1">
  <advance width="921"/>
  <unicode hex="00C6"/>
  <outline>
    <contour>
      <point x="202" y="231" type="line"/>
      <point x="152" y="142" type="line"/>
      <point x="525" y="142" type="line"/>
      <point x="525" y="231" type="line"/>
    </contour>
    <contour>
      <point x="586" y="607" type="line"/>
      <point x="855" y="607" type="line"/>
      <point x="855" y="696" type="line"/>
      <point x="395" y="696" type="line"/>
      <point x="12" y="0" type="line"/>
      <point x="136" y="0" type="line"/>
      <point x="472" y="617" type="line"/>
      <point x="472" y="0" type="line"/>
      <point x="855" y="0" type="line"/>
      <point x="855" y="89" type="line"/>
      <point x="586" y="89" type="line"/>
      <point x="586" y="308" type="line"/>
      <point x="825" y="308" type="line"/>
      <point x="825" y="396" type="line"/>
      <point x="586" y="396" type="line"/>
    </contour>
  </outline>
</glyph>
<glyph name="multiply" format="1">
  <advance width="699"/>
  <unicode hex="00D7"/>
  <outline>
    <contour>
      <point x="200" y="587" type="line"/>
      <point x="127" y="514" type="line"/>
      <point x="502" y="138" type="line"/>
      <point x="575" y="211" type="line"/>
    </contour>
    <contour>
      <point x="123" y="213" type="line"/>
      <point x="198" y="138" type="line"/>
      <point x="573" y="512" type="line"/>
      <point x="498" y="587" type="line"/>
    </contour>
  </outline>
</glyph>
<glyph name="Oslash" format="1">
  <advance width="784"/>
  <unicode hex="00D8"/>
  <outline>
    <contour>
      <point x="667" y="696" type="line"/>
      <point x="26" y="0" type="line"/>
      <point x="117" y="0" type="line"/>
      <point x="758" y="696" type="line"/>
    </contour>
    <component base="O"/>
  </outline>
</glyph>
<glyph name="ae" format="1">
  <advance width="1003"/>
  <unicode hex="00E6"/>
  <outline>
    <contour>
      <point x="489" y="129" type="curve"/>
      <point x="539" y="250" type="line"/>
      <point x="539" y="323" type="line" smooth="yes"/>
      <point x="539" y="473"/>
      <point x="433" y="561"/>
      <point x="303" y="561" type="curve" smooth="yes"/>
      <point x="165" y="561"/>
      <point x="75" y="475"/>
      <point x="59" y="356" type="curve"/>
      <point x="171" y="356" type="line"/>
      <point x="183" y="423"/>
      <point x="230" y="462"/>
      <point x="298" y="462" type="curve" smooth="yes"/>
      <point x="375" y="462"/>
      <point x="420" y="407"/>
      <point x="423" y="331" type="curve"/>
      <point x="267" y="331" type="line" smooth="yes"/>
      <point x="111" y="331"/>
      <point x="45" y="249"/>
      <point x="45" y="155" type="curve" smooth="yes"/>
      <point x="45" y="60"/>
      <point x="124" y="-10"/>
      <point x="232" y="-10" type="curve" smooth="yes"/>
      <point x="316" y="-10"/>
      <point x="423" y="32"/>
    </contour>
    <contour>
      <point x="256" y="90" type="curve" smooth="yes"/>
      <point x="196" y="90"/>
      <point x="162" y="120"/>
      <point x="162" y="164" type="curve" smooth="yes"/>
      <point x="162" y="205"/>
      <point x="191" y="239"/>
      <point x="267" y="239" type="curve" smooth="yes"/>
      <point x="423" y="239" type="line"/>
      <point x="423" y="238" type="line"/>
      <point x="423" y="136"/>
      <point x="329" y="90"/>
    </contour>
    <component base="e" xOffset="384" identifier="3027FDBD"/>
    <contour>
      <point x="539" y="0" type="move" name="ogonek"/>
    </contour>
    <contour>
      <point x="303" y="567" type="move" name="top"/>
    </contour>
  </outline>
</glyph>
<glyph name="divide" format="1">
  <advance width="679"/>
  <unicode hex="00F7"/>
  <outline>
    <contour>
      <point x="90" y="410" type="line"/>
      <point x="90" y="314" type="line"/>
      <point x="600" y="314" type="line"/>
      <point x="600" y="410" type="line"/>
    </contour>
    <component base="period" xOffset="226" yOffset="82"/>
    <component base="period" xOffset="226" yOffset="512"/>
  </outline>
</glyph>
<glyph name="oslash" format="1">
  <advance width="638"/>
  <unicode hex="00F8"/>
  <outline>
    <contour>
      <point x="531" y="551" type="line"/>
      <point x="28" y="0" type="line"/>
      <point x="107" y="0" type="line"/>
      <point x="610" y="551" type="line"/>
    </contour>
    <component base="o"/>
  </outline>
</glyph>
<glyph name="dcroat" format="1">
  <advance width="678"/>
  <unicode hex="0111"/>
  <outline>
    <contour>
      <point x="406" y="656" type="line"/>
      <point x="406" y="590" type="line"/>
      <point x="662" y="590" type="line"/>
      <point x="662" y="656" type="line"/>
    </contour>
    <component base="d"/>
  </outline>
</glyph>
<glyph name="Gcommaaccent" format="1">
  <advance width="773"/>
  <unicode hex="0122"/>
  <outline>
    <contour>
      <point x="435" y="-46" type="curve"/>
      <point x="332" y="-46" type="line"/>
      <point x="332" y="-142" type="line"/>
      <point x="385" y="-142" type="line"/>
      <point x="385" y="-163" type="line" smooth="yes"/>
      <point x="385" y="-201"/>
      <point x="370" y="-220"/>
      <point x="336" y="-220" type="curve"/>
      <point x="336" y="-270" type="line"/>
      <point x="410" y="-270"/>
      <point x="449" y="-228"/>
      <point x="449" y="-145" type="curve" smooth="yes"/>
      <point x="449" y="-116"/>
      <point x="444" y="-83"/>
    </contour>
    <contour>
      <point x="386" y="0" type="move" name="_bottom"/>
    </contour>
  </outline>
</glyph>
<glyph name="gcommaaccent" format="1">
  <advance width="678"/>
  <unicode hex="0123"/>
  <outline>
    <contour>
      <point x="290" y="597" type="curve"/>
      <point x="393" y="597" type="line"/>
      <point x="393" y="694" type="line"/>
      <point x="341" y="694" type="line"/>
      <point x="341" y="715" type="line" smooth="yes"/>
      <point x="341" y="752"/>
      <point x="356" y="771"/>
      <point x="389" y="771" type="curve"/>
      <point x="389" y="821" type="line"/>
      <point x="315" y="821"/>
      <point x="277" y="779"/>
      <point x="277" y="696" type="curve" smooth="yes"/>
      <point x="277" y="667"/>
      <point x="281" y="634"/>
    </contour>
    <component base="g"/>
  </outline>
</glyph>
<glyph name="dotlessi" format="1">
  <advance width="264"/>
  <unicode hex="0131"/>
  <outline>
    <contour>
      <point x="75" y="551" type="line"/>
      <point x="75" y="0" type="line"/>
      <point x="189" y="0" type="line"/>
      <point x="189" y="551" type="line"/>
    </contour>
    <contour>
      <point x="238" y="10" type="move" name="ogonek"/>
    </contour>
    <contour>
      <point x="132" y="551" type="move" name="top"/>
    </contour>
  </outline>
</glyph>
<glyph name="Kcommaaccent" format="1">
  <advance width="633"/>
  <unicode hex="0136"/>
  <outline>
    <contour>
      <point x="365" y="-46" type="curve"/>
      <point x="262" y="-46" type="line"/>
      <point x="262" y="-142" type="line"/>
      <point x="315" y="-142" type="line"/>
      <point x="315" y="-163" type="line" smooth="yes"/>
      <point x="315" y="-201"/>
      <point x="300" y="-220"/>
      <point x="267" y="-220" type="curve"/>
      <point x="267" y="-270" type="line"/>
      <point x="341" y="-270"/>
      <point x="379" y="-228"/>
      <point x="379" y="-145" type="curve" smooth="yes"/>
      <point x="379" y="-116"/>
      <point x="375" y="-83"/>
    </contour>
    <contour>
      <point x="317" y="0" type="move" name="_bottom"/>
    </contour>
  </outline>
</glyph>
<glyph name="kcommaaccent" format="1">
  <advance width="554"/>
  <unicode hex="0137"/>
  <outline>
    <contour>
      <point x="326" y="-46" type="curve"/>
      <point x="223" y="-46" type="line"/>
      <point x="223" y="-142" type="line"/>
      <point x="276" y="-142" type="line"/>
      <point x="276" y="-163" type="line" smooth="yes"/>
      <point x="276" y="-201"/>
      <point x="260" y="-220"/>
      <point x="227" y="-220" type="curve"/>
      <point x="227" y="-270" type="line"/>
      <point x="301" y="-270"/>
      <point x="339" y="-228"/>
      <point x="339" y="-145" type="curve" smooth="yes"/>
      <point x="339" y="-116"/>
      <point x="335" y="-83"/>
    </contour>
  </outline>
</glyph>
<glyph name="Lcommaaccent" format="1">
  <advance width="444"/>
  <unicode hex="013B"/>
  <outline>
    <contour>
      <point x="296" y="-46" type="curve"/>
      <point x="193" y="-46" type="line"/>
      <point x="193" y="-142" type="line"/>
      <point x="246" y="-142" type="line"/>
      <point x="246" y="-163" type="line" smooth="yes"/>
      <point x="246" y="-201"/>
      <point x="231" y="-220"/>
      <point x="197" y="-220" type="curve"/>
      <point x="197" y="-270" type="line"/>
      <point x="272" y="-270"/>
      <point x="310" y="-228"/>
      <point x="310" y="-145" type="curve" smooth="yes"/>
      <point x="310" y="-116"/>
      <point x="306" y="-83"/>
    </contour>
    <component base="L"/>
    <contour>
      <point x="248" y="0" type="move" name="_commaaccent"/>
    </contour>
  </outline>
</glyph>
<glyph name="Lcaron" format="1">
  <advance width="463"/>
  <unicode hex="013D"/>
  <outline>
    <contour>
      <point x="400" y="695" type="curve"/>
      <point x="297" y="695" type="line"/>
      <point x="297" y="599" type="line"/>
      <point x="350" y="599" type="line"/>
      <point x="350" y="578" type="line" smooth="yes"/>
      <point x="350" y="540"/>
      <point x="335" y="521"/>
      <point x="302" y="521" type="curve"/>
      <point x="302" y="471" type="line"/>
      <point x="376" y="471"/>
      <point x="414" y="513"/>
      <point x="414" y="596" type="curve" smooth="yes"/>
      <point x="414" y="625"/>
      <point x="410" y="658"/>
    </contour>
    <component base="L"/>
    <contour>
      <point x="352" y="741" type="move" name="_bottom"/>
    </contour>
  </outline>
</glyph>
<glyph name="Ldot" format="1">
  <advance width="444"/>
  <unicode hex="013F"/>
  <outline>
    <contour>
      <point x="352" y="315" type="curve" smooth="yes"/>
      <point x="385" y="315"/>
      <point x="412" y="341"/>
      <point x="412" y="375" type="curve" smooth="yes"/>
      <point x="412" y="408"/>
      <point x="385" y="435"/>
      <point x="352" y="435" type="curve" smooth="yes"/>
      <point x="318" y="435"/>
      <point x="292" y="408"/>
      <point x="292" y="375" type="curve" smooth="yes"/>
      <point x="292" y="341"/>
      <point x="318" y="315"/>
    </contour>
    <component base="L"/>
  </outline>
</glyph>
<glyph name="Lslash" format="1">
  <advance width="444"/>
  <unicode hex="0141"/>
  <outline>
    <contour>
      <point x="9" y="353" type="line"/>
      <point x="9" y="267" type="line"/>
      <point x="293" y="359" type="line"/>
      <point x="293" y="446" type="line"/>
    </contour>
    <component base="L" xOffset="12"/>
  </outline>
</glyph>
<glyph name="lslash" format="1">
  <advance width="264"/>
  <unicode hex="0142"/>
  <outline>
    <contour>
      <point x="9" y="361" type="line"/>
      <point x="9" y="273" type="line"/>
      <point x="256" y="358" type="line"/>
      <point x="256" y="445" type="line"/>
    </contour>
    <contour>
      <point x="75" y="740" type="line"/>
      <point x="75" y="0" type="line"/>
      <point x="189" y="0" type="line"/>
      <point x="189" y="740" type="line"/>
    </contour>
  </outline>
</glyph>
<glyph name="Ncommaaccent" format="1">
  <advance width="721"/>
  <unicode hex="0145"/>
  <outline>
    <contour>
      <point x="409" y="-46" type="curve"/>
      <point x="306" y="-46" type="line"/>
      <point x="306" y="-142" type="line"/>
      <point x="359" y="-142" type="line"/>
      <point x="359" y="-163" type="line" smooth="yes"/>
      <point x="359" y="-201"/>
      <point x="344" y="-220"/>
      <point x="311" y="-220" type="curve"/>
      <point x="311" y="-270" type="line"/>
      <point x="385" y="-270"/>
      <point x="423" y="-228"/>
      <point x="423" y="-145" type="curve" smooth="yes"/>
      <point x="423" y="-116"/>
      <point x="419" y="-83"/>
    </contour>
    <contour>
      <point x="361" y="0" type="move" name="_bottom"/>
    </contour>
  </outline>
</glyph>
<glyph name="oe" format="1">
  <advance width="1062"/>
  <unicode hex="0153"/>
  <outline>
    <contour>
      <point x="482" y="401"/>
      <point x="482" y="276" type="curve" smooth="yes"/>
      <point x="482" y="151"/>
      <point x="399" y="87"/>
      <point x="314" y="87" type="curve" smooth="yes"/>
      <point x="228" y="87"/>
      <point x="154" y="151"/>
      <point x="154" y="276" type="curve" smooth="yes"/>
      <point x="154" y="401"/>
      <point x="231" y="464"/>
      <point x="316" y="464" type="curve" smooth="yes"/>
      <point x="402" y="464"/>
    </contour>
    <contour>
      <point x="37" y="449"/>
      <point x="37" y="276" type="curve" smooth="yes"/>
      <point x="37" y="103"/>
      <point x="156" y="-9"/>
      <point x="314" y="-9" type="curve" smooth="yes"/>
      <point x="406" y="-9"/>
      <point x="488" y="33"/>
      <point x="538" y="107" type="curve"/>
      <point x="584" y="33"/>
      <point x="660" y="-9"/>
      <point x="752" y="-9" type="curve" smooth="yes"/>
      <point x="887" y="-9"/>
      <point x="975" y="68"/>
      <point x="1006" y="164" type="curve"/>
      <point x="883" y="164" type="line"/>
      <point x="862" y="121"/>
      <point x="823" y="87"/>
      <point x="752" y="87" type="curve" smooth="yes"/>
      <point x="663" y="87"/>
      <point x="600" y="150"/>
      <point x="600" y="251" type="curve" smooth="yes"/>
      <point x="600" y="295" type="line" smooth="yes"/>
      <point x="600" y="400"/>
      <point x="666" y="464"/>
      <point x="752" y="464" type="curve" smooth="yes"/>
      <point x="837" y="464"/>
      <point x="904" y="407"/>
      <point x="906" y="315" type="curve"/>
      <point x="559" y="315" type="line"/>
      <point x="558" y="237" type="line"/>
      <point x="1021" y="237" type="line"/>
      <point x="1024" y="256"/>
      <point x="1025" y="274"/>
      <point x="1025" y="291" type="curve" smooth="yes"/>
      <point x="1025" y="451"/>
      <point x="914" y="560"/>
      <point x="757" y="560" type="curve" smooth="yes"/>
      <point x="662" y="560"/>
      <point x="585" y="518"/>
      <point x="539" y="446" type="curve"/>
      <point x="490" y="518"/>
      <point x="410" y="560"/>
      <point x="319" y="560" type="curve" smooth="yes"/>
      <point x="162" y="560"/>
    </contour>
  </outline>
</glyph>
<glyph name="Rcommaaccent" format="1">
  <advance width="632"/>
  <unicode hex="0156"/>
  <outline>
    <contour>
      <point x="365" y="-46" type="curve"/>
      <point x="262" y="-46" type="line"/>
      <point x="262" y="-142" type="line"/>
      <point x="314" y="-142" type="line"/>
      <point x="314" y="-163" type="line" smooth="yes"/>
      <point x="314" y="-201"/>
      <point x="299" y="-220"/>
      <point x="266" y="-220" type="curve"/>
      <point x="266" y="-270" type="line"/>
      <point x="340" y="-270"/>
      <point x="378" y="-228"/>
      <point x="378" y="-145" type="curve" smooth="yes"/>
      <point x="378" y="-116"/>
      <point x="374" y="-83"/>
    </contour>
    <component base="R"/>
    <contour>
      <point x="316" y="0" type="move" name="_bottom"/>
    </contour>
  </outline>
</glyph>
<glyph name="Scommaaccent" format="1">
  <advance width="604"/>
  <unicode hex="0218"/>
  <outline>
    <contour>
      <point x="351" y="-46" type="curve"/>
      <point x="248" y="-46" type="line"/>
      <point x="248" y="-142" type="line"/>
      <point x="301" y="-142" type="line"/>
      <point x="301" y="-163" type="line" smooth="yes"/>
      <point x="301" y="-201"/>
      <point x="286" y="-220"/>
      <point x="252" y="-220" type="curve"/>
      <point x="252" y="-270" type="line"/>
      <point x="327" y="-270"/>
      <point x="365" y="-228"/>
      <point x="365" y="-145" type="curve" smooth="yes"/>
      <point x="365" y="-116"/>
      <point x="361" y="-83"/>
    </contour>
    <component base="S"/>
    <contour>
      <point x="303" y="0" type="move" name="_bottom"/>
    </contour>
  </outline>
</glyph>
<glyph name="Tcommaaccent" format="1">
  <advance width="564"/>
  <unicode hex="021A"/>
  <outline>
    <contour>
      <point x="331" y="-46" type="curve"/>
      <point x="228" y="-46" type="line"/>
      <point x="228" y="-142" type="line"/>
      <point x="281" y="-142" type="line"/>
      <point x="281" y="-163" type="line" smooth="yes"/>
      <point x="281" y="-201"/>
      <point x="265" y="-220"/>
      <point x="232" y="-220" type="curve"/>
      <point x="232" y="-270" type="line"/>
      <point x="306" y="-270"/>
      <point x="344" y="-228"/>
      <point x="344" y="-145" type="curve" smooth="yes"/>
      <point x="344" y="-116"/>
      <point x="340" y="-83"/>
    </contour>
    <component base="T"/>
  </outline>
</glyph>
<glyph name="tcommaaccent" format="1">
  <advance width="372"/>
  <unicode hex="021B"/>
  <outline>
    <contour>
      <point x="235" y="-46" type="curve"/>
      <point x="132" y="-46" type="line"/>
      <point x="132" y="-142" type="line"/>
      <point x="185" y="-142" type="line"/>
      <point x="185" y="-163" type="line" smooth="yes"/>
      <point x="185" y="-201"/>
      <point x="170" y="-220"/>
      <point x="136" y="-220" type="curve"/>
      <point x="136" y="-270" type="line"/>
      <point x="211" y="-270"/>
      <point x="249" y="-228"/>
      <point x="249" y="-145" type="curve" smooth="yes"/>
      <point x="249" y="-116"/>
      <point x="245" y="-83"/>
    </contour>
  </outline>
</glyph>
<glyph name="circumflex" format="1">
  <advance width="306"/>
  <unicode hex="02C6"/>
  <outline>
    <contour>
      <point x="296" y="588" type="line"/>
      <point x="296" y="703" type="line"/>
      <point x="153" y="786" type="line"/>
      <point x="10" y="703" type="line"/>
      <point x="10" y="588" type="line"/>
      <point x="153" y="676" type="line"/>
    </contour>
    <contour>
      <point x="153" y="551" type="move" name="_top"/>
    </contour>
  </outline>
</glyph>
<glyph name="caron" format="1">
  <advance width="306"/>
  <unicode hex="02C7"/>
  <outline>
    <contour>
      <point x="296" y="762" type="line"/>
      <point x="153" y="676" type="line"/>
      <point x="10" y="762" type="line"/>
      <point x="10" y="673" type="line"/>
      <point x="153" y="590" type="line"/>
      <point x="296" y="673" type="line"/>
    </contour>
    <contour>
      <point x="153" y="551" type="move" name="_top"/>
    </contour>
  </outline>
</glyph>
<glyph name="breve" format="1">
  <advance width="321"/>
  <unicode hex="02D8"/>
  <outline>
    <contour>
      <point x="311" y="653"/>
      <point x="311" y="736" type="curve" smooth="yes"/>
      <point x="311" y="758" type="line"/>
      <point x="245" y="758" type="line"/>
      <point x="245" y="713"/>
      <point x="225" y="686"/>
      <point x="160" y="686" type="curve" smooth="yes"/>
      <point x="95" y="686"/>
      <point x="75" y="713"/>
      <point x="75" y="758" type="curve"/>
      <point x="10" y="758" type="line"/>
      <point x="10" y="737" type="line" smooth="yes"/>
      <point x="10" y="654"/>
      <point x="66" y="597"/>
      <point x="160" y="597" type="curve" smooth="yes"/>
      <point x="255" y="597"/>
    </contour>
    <contour>
      <point x="160" y="551" type="move" name="_top"/>
    </contour>
  </outline>
</glyph>
<glyph name="dotaccent" format="1">
  <advance width="140"/>
  <unicode hex="02D9"/>
  <outline>
    <contour>
      <point x="36" y="620"/>
      <point x="70" y="620" type="curve" smooth="yes"/>
      <point x="103" y="620"/>
      <point x="130" y="646"/>
      <point x="130" y="680" type="curve" smooth="yes"/>
      <point x="130" y="713"/>
      <point x="103" y="740"/>
      <point x="70" y="740" type="curve" smooth="yes"/>
      <point x="36" y="740"/>
      <point x="10" y="713"/>
      <point x="10" y="680" type="curve" smooth="yes"/>
      <point x="10" y="646"/>
    </contour>
    <contour>
      <point x="70" y="551" type="move" name="_top"/>
    </contour>
  </outline>
</glyph>
<glyph name="ring" format="1">
  <advance width="238"/>
  <unicode hex="02DA"/>
  <outline>
    <contour>
      <point x="232" y="714" type="curve" smooth="yes"/>
      <point x="232" y="782"/>
      <point x="182" y="824"/>
      <point x="119" y="824" type="curve" smooth="yes"/>
      <point x="58" y="824"/>
      <point x="7" y="782"/>
      <point x="7" y="714" type="curve" smooth="yes"/>
      <point x="7" y="647"/>
      <point x="58" y="605"/>
      <point x="119" y="605" type="curve" smooth="yes"/>
      <point x="182" y="605"/>
      <point x="232" y="647"/>
    </contour>
    <contour>
      <point x="168" y="715" type="curve" smooth="yes"/>
      <point x="168" y="685"/>
      <point x="146" y="664"/>
      <point x="119" y="664" type="curve" smooth="yes"/>
      <point x="93" y="664"/>
      <point x="71" y="685"/>
      <point x="71" y="715" type="curve" smooth="yes"/>
      <point x="71" y="746"/>
      <point x="93" y="766"/>
      <point x="119" y="766" type="curve" smooth="yes"/>
      <point x="146" y="766"/>
      <point x="168" y="746"/>
    </contour>
    <contour>
      <point x="119" y="551" type="move" name="_top"/>
    </contour>
  </outline>
</glyph>
<glyph name="hungarumlaut" format="1">
  <advance width="365"/>
  <unicode hex="02DD"/>
  <outline>
    <contour>
      <point x="178" y="771" type="line"/>
      <point x="79" y="771" type="line"/>
      <point x="10" y="601" type="line"/>
      <point x="84" y="601" type="line"/>
    </contour>
    <contour>
      <point x="344" y="771" type="line"/>
      <point x="245" y="771" type="line"/>
      <point x="170" y="601" type="line"/>
      <point x="244" y="601" type="line"/>
    </contour>
    <contour>
      <point x="138" y="551" type="move" name="_top"/>
    </contour>
  </outline>
</glyph>
<glyph name="pi" format="1">
  <advance width="706"/>
  <unicode hex="03C0"/>
  <outline>
    <contour>
      <point x="31" y="551" type="line"/>
      <point x="31" y="462" type="line"/>
      <point x="107" y="462" type="line"/>
      <point x="107" y="0" type="line"/>
      <point x="221" y="0" type="line"/>
      <point x="221" y="462" type="line"/>
      <point x="480" y="462" type="line"/>
      <point x="480" y="0" type="line"/>
      <point x="593" y="0" type="line"/>
      <point x="593" y="462" type="line"/>
      <point x="670" y="462" type="line"/>
      <point x="670" y="551" type="line"/>
    </contour>
  </outline>
</glyph>
<glyph name="endash" format="1">
  <advance width="665"/>
  <unicode hex="2013"/>
  <outline>
    <contour>
      <point x="65" y="353" type="line"/>
      <point x="65" y="257" type="line"/>
      <point x="600" y="257" type="line"/>
      <point x="600" y="353" type="line"/>
    </contour>
  </outline>
</glyph>
<glyph name="emdash" format="1">
  <advance width="880"/>
  <unicode hex="2014"/>
  <outline>
    <contour>
      <point x="65" y="353" type="line"/>
      <point x="65" y="257" type="line"/>
      <point x="815" y="257" type="line"/>
      <point x="815" y="353" type="line"/>
    </contour>
  </outline>
</glyph>
<glyph name="dagger" format="1">
  <advance width="584"/>
  <unicode hex="2020"/>
  <outline>
    <contour>
      <point x="535" y="551" type="line"/>
      <point x="337" y="541" type="line"/>
      <point x="349" y="783" type="line"/>
      <point x="235" y="783" type="line"/>
      <point x="247" y="541" type="line"/>
      <point x="49" y="551" type="line"/>
      <point x="49" y="462" type="line"/>
      <point x="247" y="472" type="line"/>
      <point x="235" y="-262" type="line"/>
      <point x="349" y="-262" type="line"/>
      <point x="337" y="472" type="line"/>
      <point x="535" y="462" type="line"/>
    </contour>
  </outline>
</glyph>
<glyph name="bullet" format="1">
  <advance width="462"/>
  <unicode hex="2022"/>
  <outline>
    <contour>
      <point x="158" y="203"/>
      <point x="230" y="203" type="curve" smooth="yes"/>
      <point x="304" y="203"/>
      <point x="362" y="260"/>
      <point x="362" y="333" type="curve" smooth="yes"/>
      <point x="362" y="407"/>
      <point x="304" y="464"/>
      <point x="230" y="464" type="curve" smooth="yes"/>
      <point x="158" y="464"/>
      <point x="100" y="407"/>
      <point x="100" y="333" type="curve" smooth="yes"/>
      <point x="100" y="260"/>
    </contour>
  </outline>
</glyph>
<glyph name="guilsinglleft" format="1">
  <advance width="307"/>
  <unicode hex="2039"/>
  <outline>
    <contour>
      <point x="257" y="96" type="line"/>
      <point x="156" y="280" type="line"/>
      <point x="257" y="464" type="line"/>
      <point x="142" y="464" type="line"/>
      <point x="45" y="280" type="line"/>
      <point x="142" y="96" type="line"/>
    </contour>
  </outline>
</glyph>
<glyph name="guilsinglright" format="1">
  <advance width="307"/>
  <unicode hex="203A"/>
  <outline>
    <contour>
      <point x="50" y="96" type="line"/>
      <point x="164" y="96" type="line"/>
      <point x="262" y="280" type="line"/>
      <point x="164" y="464" type="line"/>
      <point x="50" y="464" type="line"/>
      <point x="150" y="280" type="line"/>
    </contour>
  </outline>
</glyph>
<glyph name="rightArrow" format="1">
  <advance width="924"/>
  <unicode hex="2192"/>
  <outline>
    <contour>
      <point x="616" y="14" type="line"/>
      <point x="864" y="240" type="line"/>
      <point x="864" y="308" type="line"/>
      <point x="616" y="535" type="line"/>
      <point x="554" y="466" type="line"/>
      <point x="784" y="259" type="line"/>
      <point x="784" y="291" type="line"/>
      <point x="554" y="83" type="line"/>
    </contour>
    <contour>
      <point x="50" y="321" type="line"/>
      <point x="50" y="228" type="line"/>
      <point x="775" y="228" type="line"/>
      <point x="775" y="321" type="line"/>
    </contour>
  </outline>
</glyph>
<glyph name="increment" format="1">
  <advance width="696"/>
  <unicode hex="2206"/>
  <outline>
    <contour>
      <point x="301" y="696" type="line"/>
      <point x="20" y="88" type="line"/>
      <point x="20" y="0" type="line"/>
      <point x="676" y="0" type="line"/>
      <point x="676" y="88" type="line"/>
      <point x="395" y="696" type="line"/>
    </contour>
    <contour>
      <point x="348" y="566" type="line"/>
      <point x="559" y="88" type="line"/>
      <point x="137" y="88" type="line"/>
    </contour>
  </outline>
</glyph>
<glyph name="product" format="1">
  <advance width="741"/>
  <unicode hex="220F"/>
  <outline>
    <contour>
      <point x="31" y="696" type="line"/>
      <point x="31" y="607" type="line"/>
      <point x="107" y="607" type="line"/>
      <point x="107" y="0" type="line"/>
      <point x="221" y="0" type="line"/>
      <point x="221" y="607" type="line"/>
      <point x="520" y="607" type="line"/>
      <point x="520" y="0" type="line"/>
      <point x="633" y="0" type="line"/>
      <point x="633" y="607" type="line"/>
      <point x="710" y="607" type="line"/>
      <point x="710" y="696" type="line"/>
    </contour>
  </outline>
</glyph>
<glyph name="summation" format="1">
  <advance width="480"/>
  <unicode hex="2211"/>
  <outline>
    <contour>
      <point x="40" y="696" type="line"/>
      <point x="40" y="564" type="line"/>
      <point x="294" y="321" type="line"/>
      <point x="40" y="77" type="line"/>
      <point x="40" y="-56" type="line"/>
      <point x="440" y="-56" type="line"/>
      <point x="440" y="32" type="line"/>
      <point x="105" y="32" type="line"/>
      <point x="110" y="8" type="line"/>
      <point x="399" y="279" type="line"/>
      <point x="399" y="367" type="line"/>
      <point x="110" y="633" type="line"/>
      <point x="119" y="608" type="line"/>
      <point x="440" y="608" type="line"/>
      <point x="440" y="696" type="line"/>
    </contour>
  </outline>
</glyph>
<glyph name="minus" format="1">
  <advance width="541"/>
  <unicode hex="2212"/>
  <outline>
    <contour>
      <point x="65" y="353" type="line"/>
      <point x="65" y="257" type="line"/>
      <point x="476" y="257" type="line"/>
      <point x="476" y="353" type="line"/>
    </contour>
  </outline>
</glyph>
<glyph name="lessequal" format="1">
  <advance width="549"/>
  <unicode hex="2264"/>
  <outline>
    <contour>
      <point x="91" y="153" type="line"/>
      <point x="91" y="67" type="line"/>
      <point x="460" y="67" type="line"/>
      <point x="460" y="153" type="line"/>
    </contour>
    <contour>
      <point x="465" y="208" type="line"/>
      <point x="224" y="409" type="line"/>
      <point x="224" y="389" type="line"/>
      <point x="465" y="588" type="line"/>
      <point x="315" y="588" type="line"/>
      <point x="85" y="398" type="line"/>
      <point x="315" y="208" type="line"/>
    </contour>
  </outline>
</glyph>
<glyph name="a_o" format="1">
  <advance width="1023"/>
  <unicode hex="F1130"/>
  <outline>
    <contour>
      <point x="489" y="129" type="curve"/>
      <point x="539" y="250" type="line"/>
      <point x="539" y="323" type="line" smooth="yes"/>
      <point x="539" y="473"/>
      <point x="433" y="561"/>
      <point x="303" y="561" type="curve" smooth="yes"/>
      <point x="165" y="561"/>
      <point x="75" y="475"/>
      <point x="59" y="356" type="curve"/>
      <point x="171" y="356" type="line"/>
      <point x="183" y="423"/>
      <point x="230" y="462"/>
      <point x="298" y="462" type="curve" smooth="yes"/>
      <point x="375" y="462"/>
      <point x="420" y="407"/>
      <point x="423" y="331" type="curve"/>
      <point x="267" y="331" type="line" smooth="yes"/>
      <point x="111" y="331"/>
      <point x="45" y="249"/>
      <point x="45" y="155" type="curve" smooth="yes"/>
      <point x="45" y="60"/>
      <point x="124" y="-10"/>
      <point x="232" y="-10" type="curve" smooth="yes"/>
      <point x="316" y="-10"/>
      <point x="423" y="32"/>
    </contour>
    <contour>
      <point x="256" y="90" type="curve" smooth="yes"/>
      <point x="196" y="90"/>
      <point x="162" y="120"/>
      <point x="162" y="164" type="curve" smooth="yes"/>
      <point x="162" y="205"/>
      <point x="191" y="239"/>
      <point x="267" y="239" type="curve" smooth="yes"/>
      <point x="423" y="239" type="line"/>
      <point x="423" y="238" type="line"/>
      <point x="423" y="136"/>
      <point x="329" y="90"/>
    </contour>
    <component base="o" xOffset="385"/>
  </outline>
</glyph>
<glyph name="c_h" format="1">
  <advance width="1013"/>
  <unicode hex="F1510"/>
  <outline>
    <contour>
      <point x="38" y="448"/>
      <point x="38" y="276" type="curve" smooth="yes"/>
      <point x="38" y="103"/>
      <point x="150" y="-9"/>
      <point x="308" y="-9" type="curve" smooth="yes"/>
      <point x="443" y="-9"/>
      <point x="531" y="66"/>
      <point x="562" y="174" type="curve"/>
      <point x="439" y="174" type="line"/>
      <point x="418" y="117"/>
      <point x="376" y="87"/>
      <point x="308" y="87" type="curve" smooth="yes"/>
      <point x="216" y="87"/>
      <point x="155" y="155"/>
      <point x="155" y="276" type="curve" smooth="yes"/>
      <point x="155" y="396"/>
      <point x="216" y="464"/>
      <point x="308" y="464" type="curve" smooth="yes"/>
      <point x="376" y="464"/>
      <point x="439" y="432"/>
      <point x="439" y="337" type="curve" smooth="yes"/>
      <point x="439" y="328" type="line"/>
      <point x="562" y="377" type="line"/>
      <point x="531" y="493"/>
      <point x="443" y="560"/>
      <point x="308" y="560" type="curve" smooth="yes"/>
      <point x="150" y="560"/>
    </contour>
    <contour>
      <point x="439" y="740" type="line"/>
      <point x="439" y="319" type="line"/>
      <point x="553" y="319" type="line"/>
      <point x="553" y="740" type="line"/>
    </contour>
    <contour>
      <point x="830" y="308" type="curve" smooth="yes"/>
      <point x="830" y="0" type="line"/>
      <point x="943" y="0" type="line"/>
      <point x="943" y="325" type="line" smooth="yes"/>
      <point x="943" y="479"/>
      <point x="847" y="560"/>
      <point x="724" y="560" type="curve" smooth="yes"/>
      <point x="628" y="560"/>
      <point x="547" y="510"/>
      <point x="523" y="432" type="curve"/>
      <point x="553" y="318" type="line"/>
      <point x="553" y="409"/>
      <point x="608" y="461"/>
      <point x="692" y="461" type="curve" smooth="yes"/>
      <point x="775" y="461"/>
      <point x="830" y="409"/>
    </contour>
    <contour>
      <point x="301" y="0" type="move" name="bottom"/>
    </contour>
    <contour>
      <point x="301" y="551" type="move" name="top"/>
    </contour>
  </outline>
</glyph>
<glyph name="c_q" format="1">
  <advance width="589"/>
  <unicode hex="F1540"/>
  <outline>
    <contour>
      <point x="447" y="174" type="line"/>
      <point x="447" y="-262" type="line"/>
      <point x="562" y="-262" type="line"/>
      <point x="562" y="174" type="line"/>
    </contour>
    <component base="c"/>
  </outline>
</glyph>
<glyph name="c_q_u_e.ss12" format="1">
  <advance width="1393"/>
  <unicode hex="F1560"/>
  <outline>
    <contour>
      <point x="562" y="174" type="curve"/>
      <point x="501" y="160" type="line"/>
      <point x="529" y="46"/>
      <point x="572" y="-8"/>
      <point x="668" y="-8" type="curve" smooth="yes"/>
      <point x="746" y="-8"/>
      <point x="827" y="42"/>
      <point x="849" y="120" type="curve"/>
      <point x="821" y="244" type="line"/>
      <point x="821" y="143"/>
      <point x="766" y="91"/>
      <point x="682" y="91" type="curve" smooth="yes"/>
      <point x="627" y="91"/>
      <point x="584" y="114"/>
    </contour>
    <contour>
      <point x="935" y="0" type="line"/>
      <point x="935" y="551" type="line"/>
      <point x="821" y="551" type="line"/>
      <point x="821" y="0" type="line"/>
    </contour>
    <component base="c_q"/>
    <component base="bout-e" xOffset="362"/>
  </outline>
</glyph>
<glyph name="d_u_d_e_l_a" format="1">
  <advance width="2420"/>
  <unicode hex="F1730"/>
  <outline>
    <contour>
      <point x="849" y="728" type="curve" smooth="yes"/>
      <point x="849" y="935" type="line"/>
      <point x="735" y="935" type="line"/>
      <point x="735" y="711" type="line" smooth="yes"/>
      <point x="735" y="557"/>
      <point x="833" y="476"/>
      <point x="987" y="476" type="curve" smooth="yes"/>
      <point x="1138" y="476"/>
      <point x="1239" y="555"/>
      <point x="1239" y="711" type="curve" smooth="yes"/>
      <point x="1239" y="935" type="line"/>
      <point x="1125" y="935" type="line"/>
      <point x="1125" y="728" type="line" smooth="yes"/>
      <point x="1125" y="627"/>
      <point x="1070" y="575"/>
      <point x="987" y="575" type="curve" smooth="yes"/>
      <point x="903" y="575"/>
      <point x="849" y="627"/>
    </contour>
    <contour>
      <point x="488" y="935" type="line"/>
      <point x="488" y="593" type="line"/>
      <point x="603" y="593" type="line"/>
      <point x="603" y="935" type="line"/>
    </contour>
    <component base="d"/>
    <component base="e" xOffset="678"/>
    <component base="l" xOffset="1559" identifier="98586DC2"/>
    <component base="a" xOffset="1823" identifier="F2189045"/>
  </outline>
</glyph>
<glyph name="Eacute_E" format="1">
  <advance width="924"/>
  <unicode hex="F1820"/>
  <outline>
    <contour>
      <point x="400" y="696" type="line"/>
      <point x="400" y="603" type="line"/>
      <point x="546" y="603" type="line"/>
      <point x="546" y="696" type="line"/>
    </contour>
    <contour>
      <point x="400" y="93" type="line"/>
      <point x="400" y="0" type="line"/>
      <point x="546" y="0" type="line"/>
      <point x="546" y="93" type="line"/>
    </contour>
    <contour>
      <point x="400" y="399" type="line"/>
      <point x="400" y="306" type="line"/>
      <point x="546" y="306" type="line"/>
      <point x="546" y="399" type="line"/>
    </contour>
    <component base="Eacute"/>
    <component base="E" xOffset="402" identifier="BA6B0309"/>
  </outline>
</glyph>
<glyph name="e_t" format="1">
  <advance width="747"/>
  <unicode hex="F1960"/>
  <outline>
    <contour>
      <point x="468" y="627" type="line"/>
      <point x="468" y="153" type="line" smooth="yes"/>
      <point x="468" y="41"/>
      <point x="529" y="0"/>
      <point x="627" y="0" type="curve" smooth="yes"/>
      <point x="717" y="0" type="line"/>
      <point x="717" y="95" type="line"/>
      <point x="647" y="95" type="line" smooth="yes"/>
      <point x="599" y="95"/>
      <point x="583" y="112"/>
      <point x="583" y="153" type="curve" smooth="yes"/>
      <point x="583" y="724" type="line"/>
    </contour>
    <contour>
      <point x="503" y="458" type="line"/>
      <point x="717" y="458" type="line"/>
      <point x="717" y="551" type="line"/>
      <point x="503" y="551" type="line"/>
    </contour>
    <component base="bout-e" xOffset="-422" identifier="C1F5C052"/>
  </outline>
</glyph>
<glyph name="e_t_t" format="1">
  <advance width="1119"/>
  <unicode hex="F1970"/>
  <outline>
    <contour>
      <point x="468" y="233" type="line"/>
      <point x="583" y="233" type="line"/>
      <point x="583" y="724" type="line"/>
      <point x="468" y="627" type="line"/>
    </contour>
    <contour>
      <point x="503" y="458" type="line"/>
      <point x="847" y="458" type="line"/>
      <point x="847" y="551" type="line"/>
      <point x="503" y="551" type="line"/>
    </contour>
    <contour>
      <point x="583" y="164" type="curve"/>
      <point x="468" y="164" type="line"/>
      <point x="468" y="41"/>
      <point x="529" y="0"/>
      <point x="627" y="0" type="curve" smooth="yes"/>
      <point x="717" y="0" type="line"/>
      <point x="717" y="95" type="line"/>
      <point x="647" y="95" type="line" smooth="yes"/>
      <point x="599" y="95"/>
      <point x="583" y="112"/>
    </contour>
    <component base="t" xOffset="747"/>
    <component base="e"/>
  </outline>
</glyph>
<glyph name="e_t_t_e.ss12" format="1">
  <advance width="1412"/>
  <unicode hex="F1980"/>
  <outline>
    <contour>
      <point x="468" y="233" type="line"/>
      <point x="583" y="233" type="line"/>
      <point x="583" y="724" type="line"/>
      <point x="468" y="627" type="line"/>
    </contour>
    <contour>
      <point x="503" y="458" type="line"/>
      <point x="867" y="458" type="line"/>
      <point x="867" y="551" type="line"/>
      <point x="503" y="551" type="line"/>
    </contour>
    <contour>
      <point x="840" y="627" type="line"/>
      <point x="840" y="153" type="line" smooth="yes"/>
      <point x="840" y="41"/>
      <point x="901" y="0"/>
      <point x="999" y="0" type="curve" smooth="yes"/>
      <point x="1089" y="0" type="line"/>
      <point x="1089" y="95" type="line"/>
      <point x="1019" y="95" type="line" smooth="yes"/>
      <point x="971" y="95"/>
      <point x="955" y="112"/>
      <point x="955" y="153" type="curve" smooth="yes"/>
      <point x="955" y="724" type="line"/>
    </contour>
    <contour>
      <point x="583" y="164" type="curve"/>
      <point x="468" y="164" type="line"/>
      <point x="468" y="41"/>
      <point x="529" y="0"/>
      <point x="627" y="0" type="curve" smooth="yes"/>
      <point x="717" y="0" type="line"/>
      <point x="717" y="95" type="line"/>
      <point x="647" y="95" type="line" smooth="yes"/>
      <point x="599" y="95"/>
      <point x="583" y="112"/>
    </contour>
    <component base="e"/>
    <component base="bout-e" xOffset="381"/>
  </outline>
</glyph>
<glyph name="e_u" format="1">
  <advance width="1013"/>
  <unicode hex="F19A0"/>
  <outline>
    <contour>
      <point x="938" y="0" type="line"/>
      <point x="938" y="551" type="line"/>
      <point x="824" y="551" type="line"/>
      <point x="824" y="0" type="line"/>
    </contour>
    <contour>
      <point x="565" y="164" type="curve"/>
      <point x="452" y="160" type="line"/>
      <point x="480" y="46"/>
      <point x="555" y="-8"/>
      <point x="661" y="-8" type="curve" smooth="yes"/>
      <point x="749" y="-8"/>
      <point x="830" y="42"/>
      <point x="852" y="120" type="curve"/>
      <point x="824" y="244" type="line"/>
      <point x="824" y="143"/>
      <point x="769" y="91"/>
      <point x="685" y="91" type="curve" smooth="yes"/>
      <point x="630" y="91"/>
      <point x="587" y="114"/>
    </contour>
    <component base="e"/>
  </outline>
</glyph>
<glyph name="e_s_s_e.ss12" format="1">
  <advance width="1877"/>
  <unicode hex="F19C0"/>
  <outline>
    <contour>
      <point x="554" y="278" type="line"/>
      <point x="554" y="233" type="line"/>
      <point x="660" y="233" type="line"/>
      <point x="660" y="278" type="line"/>
    </contour>
    <contour>
      <point x="126" y="325" type="line"/>
      <point x="126" y="233" type="line"/>
      <point x="577" y="233" type="line"/>
      <point x="580" y="252"/>
      <point x="581" y="270"/>
      <point x="581" y="289" type="curve" smooth="yes"/>
      <point x="581" y="451"/>
      <point x="470" y="560"/>
      <point x="313" y="560" type="curve" smooth="yes"/>
      <point x="150" y="560"/>
      <point x="38" y="449"/>
      <point x="38" y="276" type="curve" smooth="yes"/>
      <point x="38" y="103"/>
      <point x="155" y="-9"/>
      <point x="313" y="-9" type="curve" smooth="yes"/>
      <point x="448" y="-9"/>
      <point x="535" y="68"/>
      <point x="561" y="164" type="curve"/>
      <point x="443" y="169" type="line"/>
      <point x="425" y="121"/>
      <point x="383" y="87"/>
      <point x="313" y="87" type="curve" smooth="yes"/>
      <point x="224" y="87"/>
      <point x="155" y="150"/>
      <point x="155" y="251" type="curve" smooth="yes"/>
      <point x="155" y="295" type="line" smooth="yes"/>
      <point x="155" y="400"/>
      <point x="222" y="464"/>
      <point x="308" y="464" type="curve" smooth="yes"/>
      <point x="393" y="464"/>
      <point x="459" y="410"/>
      <point x="462" y="325" type="curve"/>
    </contour>
    <component base="s_s_e" xOffset="398"/>
  </outline>
</glyph>
<glyph name="f_f_e" format="1">
  <advance width="1006"/>
  <unicode hex="F2130"/>
  <outline>
    <contour>
      <point x="93" y="590" type="curve" smooth="yes"/>
      <point x="93" y="0" type="line"/>
      <point x="208" y="0" type="line"/>
      <point x="208" y="590" type="line" smooth="yes"/>
      <point x="208" y="653"/>
      <point x="232" y="677"/>
      <point x="302" y="677" type="curve"/>
      <point x="302" y="772" type="line"/>
      <point x="158" y="772"/>
      <point x="93" y="717"/>
    </contour>
    <contour>
      <point x="28" y="551" type="line"/>
      <point x="28" y="458" type="line"/>
      <point x="470" y="458" type="line"/>
      <point x="470" y="551" type="line"/>
    </contour>
    <contour>
      <point x="425" y="590" type="curve" smooth="yes"/>
      <point x="425" y="0" type="line"/>
      <point x="540" y="0" type="line"/>
      <point x="540" y="590" type="line" smooth="yes"/>
      <point x="540" y="653"/>
      <point x="564" y="677"/>
      <point x="634" y="677" type="curve"/>
      <point x="634" y="772" type="line"/>
      <point x="490" y="772"/>
      <point x="425" y="717"/>
    </contour>
    <component base="bout-e" xOffset="-35"/>
  </outline>
</glyph>
<glyph name="f_v_e.ss12" format="1">
  <advance width="943"/>
  <unicode hex="F2160"/>
  <outline>
    <contour>
      <point x="93" y="590" type="curve" smooth="yes"/>
      <point x="93" y="0" type="line"/>
      <point x="208" y="0" type="line"/>
      <point x="208" y="590" type="line" smooth="yes"/>
      <point x="208" y="653"/>
      <point x="232" y="677"/>
      <point x="302" y="677" type="curve"/>
      <point x="302" y="772" type="line"/>
      <point x="158" y="772"/>
      <point x="93" y="717"/>
    </contour>
    <contour>
      <point x="413" y="437" type="line"/>
      <point x="175" y="0" type="line"/>
      <point x="294" y="0" type="line"/>
      <point x="601" y="551" type="line"/>
    </contour>
    <contour>
      <point x="28" y="551" type="line"/>
      <point x="28" y="458" type="line"/>
      <point x="200" y="458" type="line"/>
      <point x="200" y="551" type="line"/>
    </contour>
    <component base="bout-e" xOffset="-88"/>
  </outline>
</glyph>
<glyph name="h_o_f" format="1">
  <advance width="1135"/>
  <unicode hex="F2510"/>
  <outline>
    <contour>
      <point x="75" y="740" type="line"/>
      <point x="75" y="0" type="line"/>
      <point x="189" y="0" type="line"/>
      <point x="189" y="740" type="line"/>
    </contour>
    <contour>
      <point x="466" y="308" type="curve" smooth="yes"/>
      <point x="466" y="280" type="line"/>
      <point x="579" y="280" type="line"/>
      <point x="579" y="325" type="line" smooth="yes"/>
      <point x="579" y="479"/>
      <point x="483" y="560"/>
      <point x="360" y="560" type="curve" smooth="yes"/>
      <point x="264" y="560"/>
      <point x="183" y="510"/>
      <point x="159" y="432" type="curve"/>
      <point x="189" y="308" type="line"/>
      <point x="189" y="409"/>
      <point x="244" y="461"/>
      <point x="328" y="461" type="curve" smooth="yes"/>
      <point x="411" y="461"/>
      <point x="466" y="409"/>
    </contour>
    <contour>
      <point x="913" y="590" type="curve" smooth="yes"/>
      <point x="913" y="270" type="line"/>
      <point x="1028" y="270" type="line"/>
      <point x="1028" y="590" type="line" smooth="yes"/>
      <point x="1028" y="653"/>
      <point x="1052" y="677"/>
      <point x="1122" y="677" type="curve"/>
      <point x="1122" y="772" type="line"/>
      <point x="978" y="772"/>
      <point x="913" y="717"/>
    </contour>
    <contour>
      <point x="928" y="551" type="line"/>
      <point x="928" y="458" type="line"/>
      <point x="1130" y="458" type="line"/>
      <point x="1130" y="551" type="line"/>
    </contour>
    <component base="o" xOffset="428"/>
  </outline>
</glyph>
<glyph name="I_E" format="1">
  <advance width="635"/>
  <unicode hex="F2610"/>
  <outline>
    <contour>
      <point x="65" y="696" type="line"/>
      <point x="65" y="603" type="line"/>
      <point x="389" y="603" type="line"/>
      <point x="389" y="696" type="line"/>
    </contour>
    <contour>
      <point x="65" y="93" type="line"/>
      <point x="65" y="0" type="line"/>
      <point x="389" y="0" type="line"/>
      <point x="389" y="93" type="line"/>
    </contour>
    <component base="E" xOffset="113"/>
  </outline>
</glyph>
<glyph name="l_l_e" format="1">
  <advance width="911"/>
  <unicode hex="F3330"/>
  <outline>
    <contour>
      <point x="75" y="47" type="line"/>
      <point x="75" y="-12" type="line" smooth="yes"/>
      <point x="75" y="-124"/>
      <point x="137" y="-209"/>
      <point x="264" y="-209" type="curve" smooth="yes"/>
      <point x="391" y="-209"/>
      <point x="453" y="-124"/>
      <point x="453" y="-12" type="curve" smooth="yes"/>
      <point x="453" y="47" type="line"/>
      <point x="339" y="47" type="line"/>
      <point x="339" y="-14" type="line" smooth="yes"/>
      <point x="339" y="-76"/>
      <point x="309" y="-113"/>
      <point x="264" y="-113" type="curve" smooth="yes"/>
      <point x="219" y="-113"/>
      <point x="189" y="-76"/>
      <point x="189" y="-14" type="curve" smooth="yes"/>
      <point x="189" y="47" type="line"/>
    </contour>
    <component base="l"/>
    <component base="l" xOffset="264"/>
    <component base="bout-e" xOffset="-120"/>
  </outline>
</glyph>
<glyph name="l_u" format="1">
  <advance width="654"/>
  <unicode hex="F3350"/>
  <outline>
    <contour>
      <point x="75" y="678" type="line"/>
      <point x="75" y="300" type="line"/>
      <point x="189" y="300" type="line"/>
      <point x="189" y="774" type="line"/>
    </contour>
    <component base="u" xOffset="5"/>
  </outline>
</glyph>
<glyph name="n_n" format="1">
  <advance width="968"/>
  <unicode hex="F3740"/>
  <outline>
    <contour>
      <point x="785" y="438" type="curve" smooth="yes"/>
      <point x="785" y="130" type="line"/>
      <point x="898" y="130" type="line"/>
      <point x="898" y="455" type="line" smooth="yes"/>
      <point x="898" y="609"/>
      <point x="801" y="690"/>
      <point x="672" y="690" type="curve" smooth="yes"/>
      <point x="582" y="690"/>
      <point x="477" y="640"/>
      <point x="435" y="510" type="curve"/>
      <point x="510" y="438" type="line"/>
      <point x="517" y="528"/>
      <point x="571" y="591"/>
      <point x="647" y="591" type="curve" smooth="yes"/>
      <point x="730" y="591"/>
      <point x="785" y="539"/>
    </contour>
    <component base="n"/>
  </outline>
</glyph>
<glyph name="o_t" format="1">
  <advance width="995"/>
  <unicode hex="F3940"/>
  <outline>
    <contour>
      <point x="731" y="627" type="line"/>
      <point x="731" y="203" type="line"/>
      <point x="846" y="203" type="line"/>
      <point x="846" y="724" type="line"/>
    </contour>
    <contour>
      <point x="666" y="458" type="line"/>
      <point x="980" y="458" type="line"/>
      <point x="980" y="551" type="line"/>
      <point x="666" y="551" type="line"/>
    </contour>
    <contour>
      <point x="581" y="226" type="line"/>
      <point x="483" y="98" type="line"/>
      <point x="509" y="33"/>
      <point x="566" y="-9"/>
      <point x="656" y="-9" type="curve" smooth="yes"/>
      <point x="783" y="-9"/>
      <point x="846" y="76"/>
      <point x="846" y="188" type="curve" smooth="yes"/>
      <point x="846" y="247" type="line"/>
      <point x="731" y="247" type="line"/>
      <point x="731" y="186" type="line" smooth="yes"/>
      <point x="731" y="124"/>
      <point x="701" y="87"/>
      <point x="656" y="87" type="curve" smooth="yes"/>
      <point x="611" y="87"/>
      <point x="581" y="124"/>
      <point x="581" y="186" type="curve" smooth="yes"/>
    </contour>
    <component base="o"/>
  </outline>
</glyph>
<glyph name="o_t_e.ss12" format="1">
  <advance width="1303"/>
  <unicode hex="F3950"/>
  <outline>
    <contour>
      <point x="731" y="627" type="line"/>
      <point x="731" y="203" type="line"/>
      <point x="846" y="203" type="line"/>
      <point x="846" y="724" type="line"/>
    </contour>
    <contour>
      <point x="581" y="226" type="line"/>
      <point x="483" y="98" type="line"/>
      <point x="509" y="33"/>
      <point x="566" y="-9"/>
      <point x="656" y="-9" type="curve" smooth="yes"/>
      <point x="783" y="-9"/>
      <point x="846" y="76"/>
      <point x="846" y="188" type="curve" smooth="yes"/>
      <point x="846" y="247" type="line"/>
      <point x="731" y="247" type="line"/>
      <point x="731" y="186" type="line" smooth="yes"/>
      <point x="731" y="124"/>
      <point x="701" y="87"/>
      <point x="656" y="87" type="curve" smooth="yes"/>
      <point x="611" y="87"/>
      <point x="581" y="124"/>
      <point x="581" y="186" type="curve" smooth="yes"/>
    </contour>
    <contour>
      <point x="666" y="458" type="line"/>
      <point x="830" y="458" type="line"/>
      <point x="830" y="551" type="line"/>
      <point x="666" y="551" type="line"/>
    </contour>
    <component base="o"/>
    <component base="bout-e" xOffset="272"/>
  </outline>
</glyph>
<glyph name="o_idieresis" format="1">
  <advance width="902"/>
  <unicode hex="F3970"/>
  <outline>
    <contour>
      <point x="723" y="551" type="line"/>
      <point x="723" y="200" type="line"/>
      <point x="837" y="200" type="line"/>
      <point x="837" y="551" type="line"/>
    </contour>
    <contour>
      <point x="573" y="226" type="line"/>
      <point x="475" y="98" type="line"/>
      <point x="501" y="33"/>
      <point x="558" y="-9"/>
      <point x="648" y="-9" type="curve" smooth="yes"/>
      <point x="775" y="-9"/>
      <point x="837" y="76"/>
      <point x="837" y="188" type="curve" smooth="yes"/>
      <point x="837" y="247" type="line"/>
      <point x="723" y="247" type="line"/>
      <point x="723" y="186" type="line" smooth="yes"/>
      <point x="723" y="124"/>
      <point x="693" y="87"/>
      <point x="648" y="87" type="curve" smooth="yes"/>
      <point x="603" y="87"/>
      <point x="573" y="124"/>
      <point x="573" y="186" type="curve" smooth="yes"/>
    </contour>
    <component base="o"/>
    <component base="dieresis" xOffset="624"/>
  </outline>
</glyph>
<glyph name="o_idieresis_n_e.ss12" format="1">
  <advance width="1686"/>
  <unicode hex="F3980"/>
  <outline>
    <contour>
      <point x="1114" y="308" type="curve" smooth="yes"/>
      <point x="1114" y="0" type="line"/>
      <point x="1227" y="0" type="line"/>
      <point x="1227" y="325" type="line" smooth="yes"/>
      <point x="1227" y="479"/>
      <point x="1130" y="560"/>
      <point x="1001" y="560" type="curve" smooth="yes"/>
      <point x="911" y="560"/>
      <point x="831" y="510"/>
      <point x="807" y="432" type="curve"/>
      <point x="837" y="308" type="line"/>
      <point x="837" y="409"/>
      <point x="892" y="461"/>
      <point x="976" y="461" type="curve" smooth="yes"/>
      <point x="1059" y="461"/>
      <point x="1114" y="409"/>
    </contour>
    <component base="bout-e" xOffset="655"/>
    <component base="o_idieresis"/>
  </outline>
</glyph>
<glyph name="p_m" format="1">
  <advance width="1434"/>
  <unicode hex="F4110"/>
  <outline>
    <contour>
      <point x="861" y="308" type="curve" smooth="yes"/>
      <point x="861" y="0" type="line"/>
      <point x="974" y="0" type="line"/>
      <point x="974" y="325" type="line" smooth="yes"/>
      <point x="974" y="479"/>
      <point x="876" y="560"/>
      <point x="747" y="560" type="curve" smooth="yes"/>
      <point x="657" y="560"/>
      <point x="578" y="510"/>
      <point x="554" y="432" type="curve"/>
      <point x="584" y="308" type="line"/>
      <point x="584" y="409"/>
      <point x="639" y="461"/>
      <point x="723" y="461" type="curve" smooth="yes"/>
      <point x="806" y="461"/>
      <point x="861" y="409"/>
    </contour>
    <contour>
      <point x="1251" y="308" type="curve" smooth="yes"/>
      <point x="1251" y="0" type="line"/>
      <point x="1364" y="0" type="line"/>
      <point x="1364" y="325" type="line" smooth="yes"/>
      <point x="1364" y="479"/>
      <point x="1266" y="560"/>
      <point x="1137" y="560" type="curve" smooth="yes"/>
      <point x="1049" y="560"/>
      <point x="965" y="510"/>
      <point x="937" y="432" type="curve"/>
      <point x="974" y="308" type="line"/>
      <point x="974" y="409"/>
      <point x="1029" y="461"/>
      <point x="1113" y="461" type="curve" smooth="yes"/>
      <point x="1196" y="461"/>
      <point x="1251" y="409"/>
    </contour>
    <component base="p"/>
  </outline>
</glyph>
<glyph name="r_e.ss10" format="1">
  <advance width="850"/>
  <unicode hex="F4511"/>
  <outline>
    <contour>
      <point x="155" y="330" type="curve"/>
      <point x="189" y="290" type="line"/>
      <point x="189" y="407"/>
      <point x="320" y="622"/>
      <point x="524" y="622" type="curve" smooth="yes"/>
      <point x="533" y="622" type="line"/>
      <point x="533" y="740" type="line"/>
      <point x="515" y="740" type="line" smooth="yes"/>
      <point x="287" y="740"/>
      <point x="155" y="454"/>
    </contour>
    <contour>
      <point x="75" y="551" type="line"/>
      <point x="75" y="0" type="line"/>
      <point x="189" y="0" type="line"/>
      <point x="189" y="551" type="line"/>
    </contour>
    <component base="bout-e" xOffset="-181" yOffset="-20" identifier="A8D50F17"/>
  </outline>
</glyph>
<glyph name="r_i" format="1">
  <advance width="569"/>
  <unicode hex="F4570"/>
  <outline>
    <contour>
      <point x="155" y="330" type="curve"/>
      <point x="189" y="290" type="line"/>
      <point x="189" y="407"/>
      <point x="241" y="442"/>
      <point x="325" y="442" type="curve" smooth="yes"/>
      <point x="493" y="442" type="line"/>
      <point x="493" y="550" type="line"/>
      <point x="354" y="550" type="line" smooth="yes"/>
      <point x="220" y="550"/>
      <point x="155" y="459"/>
    </contour>
    <contour>
      <point x="75" y="551" type="line"/>
      <point x="75" y="0" type="line"/>
      <point x="189" y="0" type="line"/>
      <point x="189" y="551" type="line"/>
    </contour>
    <contour>
      <point x="379" y="368" type="line"/>
      <point x="379" y="0" type="line"/>
      <point x="493" y="0" type="line"/>
      <point x="493" y="368" type="line"/>
    </contour>
    <contour>
      <point x="364" y="697" type="curve" smooth="yes"/>
      <point x="364" y="656"/>
      <point x="396" y="624"/>
      <point x="437" y="624" type="curve" smooth="yes"/>
      <point x="477" y="624"/>
      <point x="509" y="656"/>
      <point x="509" y="697" type="curve" smooth="yes"/>
      <point x="509" y="738"/>
      <point x="477" y="770"/>
      <point x="437" y="770" type="curve" smooth="yes"/>
      <point x="396" y="770"/>
      <point x="364" y="738"/>
    </contour>
  </outline>
</glyph>
<glyph name="r_i.ss10" format="1">
  <advance width="603"/>
  <unicode hex="F4571"/>
  <outline>
    <contour>
      <point x="155" y="330" type="curve"/>
      <point x="189" y="290" type="line"/>
      <point x="189" y="407"/>
      <point x="320" y="622"/>
      <point x="484" y="622" type="curve" smooth="yes"/>
      <point x="533" y="622" type="line"/>
      <point x="533" y="740" type="line"/>
      <point x="485" y="740" type="line" smooth="yes"/>
      <point x="287" y="740"/>
      <point x="155" y="454"/>
    </contour>
    <contour>
      <point x="75" y="551" type="line"/>
      <point x="75" y="0" type="line"/>
      <point x="189" y="0" type="line"/>
      <point x="189" y="551" type="line"/>
    </contour>
    <contour>
      <point x="419" y="551" type="line"/>
      <point x="419" y="0" type="line"/>
      <point x="533" y="0" type="line"/>
      <point x="533" y="551" type="line"/>
    </contour>
  </outline>
</glyph>
<glyph name="r_s" format="1">
  <advance width="820"/>
  <unicode hex="F45C0"/>
  <outline>
    <contour>
      <point x="155" y="330" type="curve"/>
      <point x="189" y="290" type="line"/>
      <point x="189" y="407"/>
      <point x="241" y="442"/>
      <point x="325" y="442" type="curve" smooth="yes"/>
      <point x="453" y="442" type="line"/>
      <point x="523" y="550" type="line"/>
      <point x="354" y="550" type="line" smooth="yes"/>
      <point x="220" y="550"/>
      <point x="155" y="459"/>
    </contour>
    <contour>
      <point x="75" y="551" type="line"/>
      <point x="75" y="0" type="line"/>
      <point x="189" y="0" type="line"/>
      <point x="189" y="551" type="line"/>
    </contour>
    <component base="s" xOffset="290"/>
  </outline>
</glyph>
<glyph name="r_s.ss10" format="1">
  <advance width="465"/>
  <unicode hex="F45C1"/>
  <outline>
    <contour>
      <point x="237" y="-85" type="curve" smooth="yes"/>
      <point x="339" y="-85"/>
      <point x="435" y="-31"/>
      <point x="435" y="73" type="curve" smooth="yes"/>
      <point x="435" y="255"/>
      <point x="181" y="181"/>
      <point x="181" y="337" type="curve" smooth="yes"/>
      <point x="181" y="409"/>
      <point x="235" y="442"/>
      <point x="317" y="442" type="curve" smooth="yes"/>
      <point x="391" y="442" type="line"/>
      <point x="391" y="560" type="line"/>
      <point x="346" y="560" type="line" smooth="yes"/>
      <point x="216" y="560"/>
      <point x="151" y="465"/>
      <point x="147" y="342" type="curve"/>
      <point x="67" y="312" type="line"/>
      <point x="67" y="116"/>
      <point x="323" y="166"/>
      <point x="323" y="73" type="curve" smooth="yes"/>
      <point x="323" y="43"/>
      <point x="296" y="11"/>
      <point x="239" y="11" type="curve" smooth="yes"/>
      <point x="178" y="11"/>
      <point x="140" y="48"/>
      <point x="136" y="93" type="curve"/>
      <point x="18" y="93" type="line"/>
      <point x="23" y="-10"/>
      <point x="116" y="-85"/>
    </contour>
    <contour>
      <point x="67" y="551" type="line"/>
      <point x="67" y="312" type="line"/>
      <point x="181" y="293" type="line"/>
      <point x="181" y="551" type="line"/>
    </contour>
  </outline>
</glyph>
<glyph name="r_s_e.ss12" format="1">
  <advance width="1204"/>
  <unicode hex="F45D0"/>
  <outline>
    <contour>
      <point x="155" y="330" type="curve"/>
      <point x="189" y="290" type="line"/>
      <point x="189" y="407"/>
      <point x="241" y="442"/>
      <point x="325" y="442" type="curve" smooth="yes"/>
      <point x="453" y="442" type="line"/>
      <point x="523" y="550" type="line"/>
      <point x="354" y="550" type="line" smooth="yes"/>
      <point x="220" y="550"/>
      <point x="155" y="459"/>
    </contour>
    <contour>
      <point x="75" y="551" type="line"/>
      <point x="75" y="0" type="line"/>
      <point x="189" y="0" type="line"/>
      <point x="189" y="551" type="line"/>
    </contour>
    <component base="s_e" xOffset="290"/>
  </outline>
</glyph>
<glyph name="s_c" format="1">
  <advance width="894"/>
  <unicode hex="F4710"/>
  <outline>
    <contour>
      <point x="364" y="382" type="curve"/>
      <point x="486" y="382" type="line"/>
      <point x="511" y="435"/>
      <point x="558" y="464"/>
      <point x="618" y="464" type="curve" smooth="yes"/>
      <point x="686" y="464"/>
      <point x="730" y="430"/>
      <point x="749" y="377" type="curve"/>
      <point x="872" y="377" type="line"/>
      <point x="841" y="493"/>
      <point x="753" y="560"/>
      <point x="618" y="560" type="curve" smooth="yes"/>
      <point x="495" y="560"/>
      <point x="400" y="492"/>
    </contour>
    <contour>
      <point x="479" y="197" type="curve"/>
      <point x="388" y="116" type="line"/>
      <point x="434" y="37"/>
      <point x="517" y="-9"/>
      <point x="618" y="-9" type="curve" smooth="yes"/>
      <point x="753" y="-9"/>
      <point x="841" y="66"/>
      <point x="872" y="174" type="curve"/>
      <point x="749" y="174" type="line"/>
      <point x="728" y="117"/>
      <point x="686" y="87"/>
      <point x="618" y="87" type="curve" smooth="yes"/>
      <point x="549" y="87"/>
      <point x="497" y="126"/>
    </contour>
    <component base="s"/>
  </outline>
</glyph>
<glyph name="s_c_e.ss12" format="1">
  <advance width="1345"/>
  <unicode hex="F4720"/>
  <outline>
    <contour>
      <point x="617" y="560" type="curve" smooth="yes"/>
      <point x="494" y="560"/>
      <point x="400" y="492"/>
      <point x="364" y="382" type="curve"/>
      <point x="486" y="382" type="line"/>
      <point x="511" y="435"/>
      <point x="557" y="464"/>
      <point x="617" y="464" type="curve" smooth="yes"/>
      <point x="705" y="464"/>
      <point x="775" y="402"/>
      <point x="775" y="242" type="curve"/>
      <point x="867" y="355" type="line"/>
      <point x="836" y="503"/>
      <point x="752" y="560"/>
    </contour>
    <contour>
      <point x="860" y="141" type="curve"/>
      <point x="732" y="141" type="line"/>
      <point x="708" y="105"/>
      <point x="671" y="87"/>
      <point x="618" y="87" type="curve" smooth="yes"/>
      <point x="549" y="87"/>
      <point x="497" y="126"/>
      <point x="479" y="197" type="curve"/>
      <point x="388" y="116" type="line"/>
      <point x="434" y="37"/>
      <point x="517" y="-9"/>
      <point x="618" y="-9" type="curve" smooth="yes"/>
      <point x="739" y="-9"/>
      <point x="822" y="51"/>
    </contour>
    <component base="s"/>
    <component base="bout-e" xOffset="314"/>
  </outline>
</glyph>
<glyph name="s_e" format="1">
  <advance width="914"/>
  <unicode hex="F4740"/>
  <outline>
    <contour>
      <point x="365" y="383" type="curve"/>
      <point x="479" y="383" type="line"/>
      <point x="505" y="434"/>
      <point x="554" y="464"/>
      <point x="613" y="464" type="curve" smooth="yes"/>
      <point x="698" y="464"/>
      <point x="765" y="410"/>
      <point x="767" y="325" type="curve"/>
      <point x="264" y="325" type="line"/>
      <point x="264" y="233" type="line"/>
      <point x="882" y="233" type="line"/>
      <point x="885" y="252"/>
      <point x="886" y="270"/>
      <point x="886" y="289" type="curve" smooth="yes"/>
      <point x="886" y="451"/>
      <point x="775" y="560"/>
      <point x="618" y="560" type="curve" smooth="yes"/>
      <point x="491" y="560"/>
      <point x="396" y="493"/>
    </contour>
    <component base="s" identifier="CF7584F7"/>
  </outline>
</glyph>
<glyph name="s_l" format="1">
  <advance width="530"/>
  <unicode hex="F4760"/>
  <outline>
    <contour>
      <point x="209" y="678" type="line"/>
      <point x="209" y="508" type="line"/>
      <point x="323" y="508" type="line"/>
      <point x="323" y="774" type="line"/>
    </contour>
    <component base="s"/>
  </outline>
</glyph>
<glyph name="s_s" format="1">
  <advance width="1095"/>
  <unicode hex="F4790"/>
  <outline>
    <contour>
      <point x="565" y="151" type="line" smooth="yes"/>
      <point x="625" y="55"/>
      <point x="706" y="-9"/>
      <point x="838" y="-9" type="curve" smooth="yes"/>
      <point x="968" y="-9"/>
      <point x="1049" y="61"/>
      <point x="1049" y="154" type="curve" smooth="yes"/>
      <point x="1043" y="353"/>
      <point x="732" y="291"/>
      <point x="732" y="402" type="curve" smooth="yes"/>
      <point x="732" y="439"/>
      <point x="764" y="464"/>
      <point x="825" y="464" type="curve" smooth="yes"/>
      <point x="887" y="464"/>
      <point x="924" y="431"/>
      <point x="928" y="383" type="curve"/>
      <point x="1042" y="383" type="line"/>
      <point x="1036" y="493"/>
      <point x="954" y="560"/>
      <point x="829" y="560" type="curve" smooth="yes"/>
      <point x="699" y="560"/>
      <point x="617" y="489"/>
      <point x="617" y="401" type="curve" smooth="yes"/>
      <point x="617" y="199"/>
      <point x="937" y="261"/>
      <point x="937" y="153" type="curve" smooth="yes"/>
      <point x="937" y="115"/>
      <point x="902" y="87"/>
      <point x="836" y="87" type="curve" smooth="yes"/>
      <point x="773" y="87"/>
      <point x="705" y="129"/>
      <point x="657" y="206" type="curve" smooth="yes"/>
      <point x="534" y="403" type="line" smooth="yes"/>
      <point x="474" y="499"/>
      <point x="389" y="560"/>
      <point x="264" y="560" type="curve" smooth="yes"/>
      <point x="134" y="560"/>
      <point x="52" y="489"/>
      <point x="52" y="401" type="curve" smooth="yes"/>
      <point x="52" y="199"/>
      <point x="372" y="261"/>
      <point x="372" y="153" type="curve" smooth="yes"/>
      <point x="372" y="115"/>
      <point x="337" y="87"/>
      <point x="271" y="87" type="curve" smooth="yes"/>
      <point x="208" y="87"/>
      <point x="165" y="124"/>
      <point x="161" y="169" type="curve"/>
      <point x="43" y="169" type="line"/>
      <point x="48" y="69"/>
      <point x="141" y="-9"/>
      <point x="273" y="-9" type="curve" smooth="yes"/>
      <point x="403" y="-9"/>
      <point x="484" y="61"/>
      <point x="484" y="154" type="curve" smooth="yes"/>
      <point x="478" y="353"/>
      <point x="167" y="291"/>
      <point x="167" y="402" type="curve" smooth="yes"/>
      <point x="167" y="439"/>
      <point x="199" y="464"/>
      <point x="260" y="464" type="curve" smooth="yes"/>
      <point x="322" y="464"/>
      <point x="395" y="424"/>
      <point x="444" y="345" type="curve" smooth="yes"/>
    </contour>
  </outline>
</glyph>
<glyph name="s_s_e" format="1">
  <advance width="1479"/>
  <unicode hex="F47A0"/>
  <outline>
    <contour>
      <point x="930" y="383" type="curve"/>
      <point x="1044" y="383" type="line"/>
      <point x="1070" y="434"/>
      <point x="1119" y="464"/>
      <point x="1178" y="464" type="curve" smooth="yes"/>
      <point x="1263" y="464"/>
      <point x="1330" y="410"/>
      <point x="1332" y="325" type="curve"/>
      <point x="829" y="325" type="line"/>
      <point x="829" y="233" type="line"/>
      <point x="1447" y="233" type="line"/>
      <point x="1450" y="252"/>
      <point x="1451" y="270"/>
      <point x="1451" y="289" type="curve" smooth="yes"/>
      <point x="1451" y="451"/>
      <point x="1340" y="560"/>
      <point x="1183" y="560" type="curve" smooth="yes"/>
      <point x="1056" y="560"/>
      <point x="961" y="493"/>
    </contour>
    <component base="s_s"/>
  </outline>
</glyph>
<glyph name="s_t" format="1">
  <advance width="864"/>
  <unicode hex="F47C0"/>
  <outline>
    <contour>
      <point x="273" y="-9" type="curve" smooth="yes"/>
      <point x="403" y="-9"/>
      <point x="484" y="61"/>
      <point x="484" y="154" type="curve" smooth="yes"/>
      <point x="478" y="353"/>
      <point x="167" y="291"/>
      <point x="167" y="402" type="curve" smooth="yes"/>
      <point x="167" y="439"/>
      <point x="199" y="458"/>
      <point x="242" y="458" type="curve" smooth="yes"/>
      <point x="834" y="458" type="line"/>
      <point x="834" y="551" type="line"/>
      <point x="251" y="551" type="line" smooth="yes"/>
      <point x="126" y="551"/>
      <point x="52" y="489"/>
      <point x="52" y="401" type="curve" smooth="yes"/>
      <point x="52" y="199"/>
      <point x="372" y="261"/>
      <point x="372" y="153" type="curve" smooth="yes"/>
      <point x="372" y="115"/>
      <point x="337" y="87"/>
      <point x="271" y="87" type="curve" smooth="yes"/>
      <point x="208" y="87"/>
      <point x="165" y="124"/>
      <point x="161" y="169" type="curve"/>
      <point x="43" y="169" type="line"/>
      <point x="48" y="69"/>
      <point x="141" y="-9"/>
    </contour>
    <contour>
      <point x="585" y="627" type="line"/>
      <point x="585" y="153" type="line" smooth="yes"/>
      <point x="585" y="41"/>
      <point x="646" y="0"/>
      <point x="744" y="0" type="curve" smooth="yes"/>
      <point x="834" y="0" type="line"/>
      <point x="834" y="95" type="line"/>
      <point x="764" y="95" type="line" smooth="yes"/>
      <point x="716" y="95"/>
      <point x="700" y="112"/>
      <point x="700" y="153" type="curve" smooth="yes"/>
      <point x="700" y="724" type="line"/>
    </contour>
  </outline>
</glyph>
<glyph name="s_t_e.ss12" format="1">
  <advance width="1157"/>
  <unicode hex="F47D0"/>
  <outline>
    <contour>
      <point x="273" y="-9" type="curve" smooth="yes"/>
      <point x="403" y="-9"/>
      <point x="484" y="61"/>
      <point x="484" y="154" type="curve" smooth="yes"/>
      <point x="478" y="353"/>
      <point x="167" y="291"/>
      <point x="167" y="402" type="curve" smooth="yes"/>
      <point x="167" y="439"/>
      <point x="199" y="458"/>
      <point x="242" y="458" type="curve" smooth="yes"/>
      <point x="634" y="458" type="line"/>
      <point x="634" y="551" type="line"/>
      <point x="251" y="551" type="line" smooth="yes"/>
      <point x="126" y="551"/>
      <point x="52" y="489"/>
      <point x="52" y="401" type="curve" smooth="yes"/>
      <point x="52" y="199"/>
      <point x="372" y="261"/>
      <point x="372" y="153" type="curve" smooth="yes"/>
      <point x="372" y="115"/>
      <point x="337" y="87"/>
      <point x="271" y="87" type="curve" smooth="yes"/>
      <point x="208" y="87"/>
      <point x="165" y="124"/>
      <point x="161" y="169" type="curve"/>
      <point x="43" y="169" type="line"/>
      <point x="48" y="69"/>
      <point x="141" y="-9"/>
    </contour>
    <contour>
      <point x="585" y="627" type="line"/>
      <point x="585" y="153" type="line" smooth="yes"/>
      <point x="585" y="41"/>
      <point x="646" y="0"/>
      <point x="744" y="0" type="curve" smooth="yes"/>
      <point x="834" y="0" type="line"/>
      <point x="834" y="95" type="line"/>
      <point x="764" y="95" type="line" smooth="yes"/>
      <point x="716" y="95"/>
      <point x="700" y="112"/>
      <point x="700" y="153" type="curve" smooth="yes"/>
      <point x="700" y="724" type="line"/>
    </contour>
    <component base="bout-e" xOffset="126"/>
  </outline>
</glyph>
<glyph name="t_e" format="1">
  <advance width="675"/>
  <unicode hex="F4910"/>
  <outline>
    <contour>
      <point x="103" y="627" type="line"/>
      <point x="103" y="153" type="line" smooth="yes"/>
      <point x="103" y="41"/>
      <point x="164" y="0"/>
      <point x="262" y="0" type="curve" smooth="yes"/>
      <point x="352" y="0" type="line"/>
      <point x="352" y="95" type="line"/>
      <point x="282" y="95" type="line" smooth="yes"/>
      <point x="234" y="95"/>
      <point x="218" y="112"/>
      <point x="218" y="153" type="curve" smooth="yes"/>
      <point x="218" y="724" type="line"/>
    </contour>
    <contour>
      <point x="28" y="458" type="line"/>
      <point x="202" y="458" type="line"/>
      <point x="202" y="551" type="line"/>
      <point x="28" y="551" type="line"/>
    </contour>
    <component base="bout-e" xOffset="-356"/>
  </outline>
</glyph>
<glyph name="t_e.ss10" format="1">
  <advance width="854"/>
  <unicode hex="F4911"/>
  <outline>
    <contour>
      <point x="103" y="627" type="line"/>
      <point x="103" y="153" type="line" smooth="yes"/>
      <point x="103" y="41"/>
      <point x="164" y="0"/>
      <point x="262" y="0" type="curve" smooth="yes"/>
      <point x="352" y="0" type="line"/>
      <point x="352" y="95" type="line"/>
      <point x="282" y="95" type="line" smooth="yes"/>
      <point x="234" y="95"/>
      <point x="218" y="112"/>
      <point x="218" y="153" type="curve" smooth="yes"/>
      <point x="218" y="724" type="line"/>
    </contour>
    <contour>
      <point x="28" y="458" type="line"/>
      <point x="372" y="458" type="line"/>
      <point x="372" y="551" type="line"/>
      <point x="28" y="551" type="line"/>
    </contour>
    <component base="bout-e" xOffset="-177" yOffset="225"/>
  </outline>
</glyph>
<glyph name="t_t" format="1">
  <advance width="744"/>
  <unicode hex="F4970"/>
  <outline>
    <contour>
      <point x="310" y="551" type="line"/>
      <point x="310" y="458" type="line"/>
      <point x="446" y="458" type="line"/>
      <point x="446" y="551" type="line"/>
    </contour>
    <component base="t"/>
    <component base="t" xOffset="372"/>
  </outline>
</glyph>
<glyph name="t_t_e" format="1">
  <advance width="1037"/>
  <unicode hex="F4980"/>
  <outline>
    <contour>
      <point x="465" y="627" type="line"/>
      <point x="465" y="153" type="line" smooth="yes"/>
      <point x="465" y="41"/>
      <point x="526" y="0"/>
      <point x="624" y="0" type="curve" smooth="yes"/>
      <point x="714" y="0" type="line"/>
      <point x="714" y="95" type="line"/>
      <point x="644" y="95" type="line" smooth="yes"/>
      <point x="596" y="95"/>
      <point x="580" y="112"/>
      <point x="580" y="153" type="curve" smooth="yes"/>
      <point x="580" y="724" type="line"/>
    </contour>
    <contour>
      <point x="310" y="458" type="line"/>
      <point x="514" y="458" type="line"/>
      <point x="514" y="551" type="line"/>
      <point x="310" y="551" type="line"/>
    </contour>
    <component base="t"/>
    <component base="bout-e" xOffset="6"/>
  </outline>
</glyph>
<glyph name="t_t_e.ss10" format="1">
  <advance width="1226"/>
  <unicode hex="F4981"/>
  <outline>
    <contour>
      <point x="228" y="458" type="line"/>
      <point x="572" y="458" type="line"/>
      <point x="572" y="551" type="line"/>
      <point x="228" y="551" type="line"/>
    </contour>
    <component base="t"/>
    <component base="t_e.ss10" xOffset="372" identifier="9E971CE9"/>
  </outline>
</glyph>
<glyph name="t_t_e.ss11" format="1">
  <advance width="1266"/>
  <unicode hex="F4982"/>
  <outline>
    <contour>
      <point x="228" y="458" type="line"/>
      <point x="572" y="458" type="line"/>
      <point x="572" y="551" type="line"/>
      <point x="228" y="551" type="line"/>
    </contour>
    <component base="t"/>
    <component base="t_e.ss11" xOffset="372"/>
  </outline>
</glyph>
<glyph name="x_c" format="1">
  <advance width="782"/>
  <unicode hex="F5710"/>
  <outline>
    <contour>
      <point x="253" y="169" type="line"/>
      <point x="333" y="245" type="line"/>
      <point x="139" y="551" type="line"/>
      <point x="10" y="551" type="line"/>
    </contour>
    <contour>
      <point x="264" y="225" type="line"/>
      <point x="215" y="313" type="line"/>
      <point x="10" y="0" type="line"/>
      <point x="129" y="0" type="line"/>
    </contour>
    <component base="c" xOffset="193" identifier="CE7FC7EB"/>
  </outline>
</glyph>
<glyph name="x_c_e.ss12" format="1">
  <advance width="1228"/>
  <unicode hex="F5720"/>
  <outline>
    <contour>
      <point x="253" y="169" type="line"/>
      <point x="333" y="245" type="line"/>
      <point x="139" y="551" type="line"/>
      <point x="10" y="551" type="line"/>
    </contour>
    <contour>
      <point x="264" y="225" type="line"/>
      <point x="215" y="313" type="line"/>
      <point x="10" y="0" type="line"/>
      <point x="129" y="0" type="line"/>
    </contour>
    <contour>
      <point x="500" y="560" type="curve" smooth="yes"/>
      <point x="342" y="560"/>
      <point x="230" y="448"/>
      <point x="230" y="276" type="curve" smooth="yes"/>
      <point x="230" y="103"/>
      <point x="342" y="-9"/>
      <point x="500" y="-9" type="curve" smooth="yes"/>
      <point x="621" y="-9"/>
      <point x="704" y="51"/>
      <point x="743" y="142" type="curve"/>
      <point x="615" y="142" type="line"/>
      <point x="591" y="106"/>
      <point x="554" y="87"/>
      <point x="500" y="87" type="curve" smooth="yes"/>
      <point x="408" y="87"/>
      <point x="347" y="155"/>
      <point x="347" y="276" type="curve" smooth="yes"/>
      <point x="347" y="396"/>
      <point x="408" y="464"/>
      <point x="500" y="464" type="curve" smooth="yes"/>
      <point x="588" y="464"/>
      <point x="658" y="402"/>
      <point x="658" y="242" type="curve"/>
      <point x="750" y="355" type="line"/>
      <point x="719" y="503"/>
      <point x="635" y="560"/>
    </contour>
    <component base="bout-e" xOffset="197"/>
  </outline>
</glyph>
<glyph name="x_s" format="1">
  <advance width="837"/>
  <unicode hex="F57A0"/>
  <outline>
    <contour>
      <point x="10" y="551" type="line"/>
      <point x="282" y="156" type="line" smooth="yes"/>
      <point x="366" y="34"/>
      <point x="456" y="-9"/>
      <point x="567" y="-9" type="curve" smooth="yes"/>
      <point x="692" y="-9"/>
      <point x="793" y="61"/>
      <point x="793" y="154" type="curve" smooth="yes"/>
      <point x="787" y="353"/>
      <point x="486" y="291"/>
      <point x="486" y="402" type="curve" smooth="yes"/>
      <point x="486" y="439"/>
      <point x="518" y="464"/>
      <point x="579" y="464" type="curve" smooth="yes"/>
      <point x="641" y="464"/>
      <point x="678" y="431"/>
      <point x="682" y="383" type="curve"/>
      <point x="796" y="383" type="line"/>
      <point x="790" y="493"/>
      <point x="708" y="560"/>
      <point x="583" y="560" type="curve" smooth="yes"/>
      <point x="453" y="560"/>
      <point x="371" y="489"/>
      <point x="371" y="401" type="curve" smooth="yes"/>
      <point x="371" y="199"/>
      <point x="681" y="261"/>
      <point x="681" y="153" type="curve" smooth="yes"/>
      <point x="681" y="115"/>
      <point x="636" y="87"/>
      <point x="567" y="87" type="curve" smooth="yes"/>
      <point x="497" y="87"/>
      <point x="436" y="121"/>
      <point x="385" y="195" type="curve" smooth="yes"/>
      <point x="139" y="551" type="line"/>
    </contour>
    <contour>
      <point x="264" y="225" type="line"/>
      <point x="215" y="313" type="line"/>
      <point x="10" y="0" type="line"/>
      <point x="129" y="0" type="line"/>
    </contour>
  </outline>
</glyph>
<glyph name="x_s_e.ss12" format="1">
  <advance width="1230"/>
  <unicode hex="F57B0"/>
  <outline>
    <contour>
      <point x="10" y="551" type="line"/>
      <point x="282" y="156" type="line" smooth="yes"/>
      <point x="366" y="34"/>
      <point x="456" y="-9"/>
      <point x="567" y="-9" type="curve" smooth="yes"/>
      <point x="692" y="-9"/>
      <point x="793" y="61"/>
      <point x="793" y="154" type="curve" smooth="yes"/>
      <point x="787" y="353"/>
      <point x="486" y="291"/>
      <point x="486" y="402" type="curve" smooth="yes"/>
      <point x="486" y="439"/>
      <point x="518" y="464"/>
      <point x="579" y="464" type="curve" smooth="yes"/>
      <point x="641" y="464"/>
      <point x="677" y="431"/>
      <point x="681" y="383" type="curve"/>
      <point x="795" y="383" type="line"/>
      <point x="789" y="493"/>
      <point x="708" y="560"/>
      <point x="583" y="560" type="curve" smooth="yes"/>
      <point x="453" y="560"/>
      <point x="371" y="489"/>
      <point x="371" y="401" type="curve" smooth="yes"/>
      <point x="371" y="199"/>
      <point x="681" y="261"/>
      <point x="681" y="153" type="curve" smooth="yes"/>
      <point x="681" y="115"/>
      <point x="636" y="87"/>
      <point x="567" y="87" type="curve" smooth="yes"/>
      <point x="497" y="87"/>
      <point x="436" y="121"/>
      <point x="385" y="195" type="curve" smooth="yes"/>
      <point x="139" y="551" type="line"/>
    </contour>
    <contour>
      <point x="264" y="225" type="line"/>
      <point x="215" y="313" type="line"/>
      <point x="10" y="0" type="line"/>
      <point x="129" y="0" type="line"/>
    </contour>
    <contour>
      <point x="681" y="383" type="curve"/>
      <point x="795" y="383" type="line"/>
      <point x="821" y="434"/>
      <point x="870" y="464"/>
      <point x="929" y="464" type="curve" smooth="yes"/>
      <point x="1014" y="464"/>
      <point x="1081" y="410"/>
      <point x="1083" y="325" type="curve"/>
      <point x="580" y="325" type="line"/>
      <point x="580" y="233" type="line"/>
      <point x="1198" y="233" type="line"/>
      <point x="1201" y="252"/>
      <point x="1202" y="270"/>
      <point x="1202" y="289" type="curve" smooth="yes"/>
      <point x="1202" y="451"/>
      <point x="1091" y="560"/>
      <point x="934" y="560" type="curve" smooth="yes"/>
      <point x="807" y="560"/>
      <point x="712" y="493"/>
    </contour>
  </outline>
</glyph>
<glyph name="A.ss07" format="1">
  <advance width="697"/>
  <outline>
    <contour>
      <point x="415" y="696" type="line"/>
      <point x="283" y="696" type="line"/>
      <point x="34" y="0" type="line"/>
      <point x="153" y="0" type="line"/>
      <point x="375" y="634" type="line"/>
      <point x="322" y="634" type="line"/>
      <point x="544" y="0" type="line"/>
      <point x="664" y="0" type="line"/>
    </contour>
    <contour>
      <point x="290" y="235" type="line"/>
      <point x="203" y="142" type="line"/>
      <point x="554" y="142" type="line"/>
      <point x="524" y="235" type="line"/>
    </contour>
    <contour>
      <point x="664" y="0" type="move" name="ogonek"/>
    </contour>
    <contour>
      <point x="349" y="696" type="move" name="top"/>
    </contour>
  </outline>
</glyph>
<glyph name="Aogonek.ss07" format="1">
  <advance width="697"/>
  <outline>
    <component base="A.ss07"/>
    <component base="ogonek" xOffset="455"/>
    <contour>
      <point x="664" y="0" type="move" name="_ogonek"/>
    </contour>
  </outline>
</glyph>
<glyph name="H.ss07" format="1">
  <advance width="705"/>
  <outline>
    <contour>
      <point x="75" y="695" type="line"/>
      <point x="75" y="0" type="line"/>
      <point x="189" y="0" type="line"/>
      <point x="189" y="695" type="line"/>
    </contour>
    <contour>
      <point x="516" y="695" type="line"/>
      <point x="516" y="0" type="line"/>
      <point x="630" y="0" type="line"/>
      <point x="630" y="695" type="line"/>
    </contour>
    <contour>
      <point x="265" y="397" type="line"/>
      <point x="189" y="304" type="line"/>
      <point x="526" y="304" type="line"/>
      <point x="566" y="397" type="line"/>
    </contour>
  </outline>
</glyph>
<glyph name="L.ss07" format="1">
  <advance width="444"/>
  <outline>
    <contour>
      <point x="75" y="0" type="line"/>
      <point x="189" y="0" type="line"/>
      <point x="189" y="695" type="line"/>
      <point x="75" y="695" type="line"/>
    </contour>
    <contour>
      <point x="249" y="92" type="line"/>
      <point x="189" y="0" type="line"/>
      <point x="424" y="0" type="line"/>
      <point x="424" y="92" type="line"/>
    </contour>
    <contour>
      <point x="248" y="0" type="move" name="bottom"/>
    </contour>
    <contour>
      <point x="248" y="10" type="move" name="commaaccent"/>
    </contour>
    <contour>
      <point x="222" y="696" type="move" name="top"/>
    </contour>
    <contour>
      <point x="424" y="696" type="move" name="topright"/>
    </contour>
  </outline>
</glyph>
<glyph name="Lcaron.ss07" format="1">
  <advance width="444"/>
  <outline>
    <component base="L.ss07"/>
    <component base="caron" xOffset="69" yOffset="145"/>
    <contour>
      <point x="352" y="741" type="move" name="_bottom"/>
    </contour>
  </outline>
</glyph>
<glyph name="Ldot.ss07" format="1">
  <advance width="444"/>
  <outline>
    <contour>
      <point x="352" y="315" type="curve" smooth="yes"/>
      <point x="385" y="315"/>
      <point x="412" y="341"/>
      <point x="412" y="375" type="curve" smooth="yes"/>
      <point x="412" y="408"/>
      <point x="385" y="435"/>
      <point x="352" y="435" type="curve" smooth="yes"/>
      <point x="318" y="435"/>
      <point x="292" y="408"/>
      <point x="292" y="375" type="curve" smooth="yes"/>
      <point x="292" y="341"/>
      <point x="318" y="315"/>
    </contour>
    <component base="L.ss07"/>
  </outline>
</glyph>
<glyph name="Lslash.ss07" format="1">
  <advance width="444"/>
  <outline>
    <contour>
      <point x="-1" y="353" type="line"/>
      <point x="-1" y="267" type="line"/>
      <point x="283" y="359" type="line"/>
      <point x="283" y="446" type="line"/>
    </contour>
    <component base="L.ss07"/>
  </outline>
</glyph>
<glyph name="R.ss07" format="1">
  <advance width="632"/>
  <outline>
    <contour>
      <point x="444" y="557"/>
      <point x="444" y="487" type="curve" smooth="yes"/>
      <point x="444" y="418"/>
      <point x="404" y="369"/>
      <point x="315" y="369" type="curve" smooth="yes"/>
      <point x="189" y="369" type="line"/>
      <point x="189" y="602" type="line"/>
      <point x="315" y="602" type="line" smooth="yes"/>
      <point x="404" y="602"/>
    </contour>
    <contour>
      <point x="315" y="695" type="curve" smooth="yes"/>
      <point x="75" y="695" type="line"/>
      <point x="75" y="0" type="line"/>
      <point x="189" y="0" type="line"/>
      <point x="189" y="278" type="line"/>
      <point x="315" y="278" type="line" smooth="yes"/>
      <point x="496" y="278"/>
      <point x="561" y="388"/>
      <point x="561" y="487" type="curve" smooth="yes"/>
      <point x="561" y="600"/>
      <point x="480" y="695"/>
    </contour>
    <contour>
      <point x="431" y="237" type="line"/>
      <point x="274" y="279" type="line"/>
      <point x="456" y="0" type="line"/>
      <point x="592" y="0" type="line"/>
    </contour>
    <contour>
      <point x="316" y="0" type="move" name="bottom"/>
    </contour>
    <contour>
      <point x="316" y="696" type="move" name="top"/>
    </contour>
  </outline>
</glyph>
<glyph name="Rcommaaccent.ss07" format="1">
  <advance width="632"/>
  <outline>
    <contour>
      <point x="365" y="-46" type="curve"/>
      <point x="262" y="-46" type="line"/>
      <point x="262" y="-142" type="line"/>
      <point x="314" y="-142" type="line"/>
      <point x="314" y="-163" type="line" smooth="yes"/>
      <point x="314" y="-201"/>
      <point x="299" y="-220"/>
      <point x="266" y="-220" type="curve"/>
      <point x="266" y="-270" type="line"/>
      <point x="340" y="-270"/>
      <point x="378" y="-228"/>
      <point x="378" y="-145" type="curve" smooth="yes"/>
      <point x="378" y="-116"/>
      <point x="374" y="-83"/>
    </contour>
    <component base="R.ss07"/>
    <contour>
      <point x="316" y="0" type="move" name="_bottom"/>
    </contour>
  </outline>
</glyph>
<glyph name="T.ss07" format="1">
  <advance width="564"/>
  <outline>
    <contour>
      <point x="39" y="602" type="line"/>
      <point x="524" y="602" type="line"/>
      <point x="524" y="695" type="line"/>
      <point x="39" y="695" type="line"/>
    </contour>
    <contour>
      <point x="339" y="540" type="line"/>
      <point x="225" y="603" type="line"/>
      <point x="225" y="0" type="line"/>
      <point x="339" y="0" type="line"/>
    </contour>
    <contour>
      <point x="280" y="0" type="move" name="bottom"/>
    </contour>
    <contour>
      <point x="282" y="696" type="move" name="top"/>
    </contour>
  </outline>
</glyph>
<glyph name="a.ss02" format="1">
  <advance width="678"/>
  <outline>
    <contour>
      <point x="37" y="448"/>
      <point x="37" y="278" type="curve" smooth="yes"/>
      <point x="37" y="108"/>
      <point x="152" y="-9"/>
      <point x="295" y="-9" type="curve" smooth="yes"/>
      <point x="387" y="-9"/>
      <point x="453" y="35"/>
      <point x="488" y="82" type="curve"/>
      <point x="488" y="0" type="line"/>
      <point x="603" y="0" type="line"/>
      <point x="603" y="551" type="line"/>
      <point x="488" y="551" type="line"/>
      <point x="488" y="471" type="line"/>
      <point x="454" y="516"/>
      <point x="390" y="560"/>
      <point x="297" y="560" type="curve" smooth="yes"/>
      <point x="152" y="560"/>
    </contour>
    <contour>
      <point x="488" y="394"/>
      <point x="488" y="276" type="curve" smooth="yes"/>
      <point x="488" y="157"/>
      <point x="407" y="90"/>
      <point x="321" y="90" type="curve" smooth="yes"/>
      <point x="236" y="90"/>
      <point x="154" y="159"/>
      <point x="154" y="278" type="curve" smooth="yes"/>
      <point x="154" y="397"/>
      <point x="236" y="461"/>
      <point x="321" y="461" type="curve" smooth="yes"/>
      <point x="407" y="461"/>
    </contour>
    <contour>
      <point x="603" y="0" type="move" name="ogonek"/>
    </contour>
    <contour>
      <point x="339" y="551" type="move" name="top"/>
    </contour>
  </outline>
</glyph>
<glyph name="a_u_l_a" format="1">
  <advance width="2360"/>
  <outline>
    <contour>
      <point x="1537" y="80" type="curve"/>
      <point x="1537" y="0" type="line"/>
      <point x="1653" y="0" type="line"/>
      <point x="1653" y="413" type="line"/>
      <point x="1537" y="413" type="line"/>
      <point x="1537" y="331" type="line"/>
      <point x="1381" y="331" type="line" smooth="yes"/>
      <point x="1225" y="331"/>
      <point x="1159" y="249"/>
      <point x="1159" y="155" type="curve" smooth="yes"/>
      <point x="1159" y="60"/>
      <point x="1238" y="-10"/>
      <point x="1346" y="-10" type="curve" smooth="yes"/>
      <point x="1430" y="-10"/>
      <point x="1505" y="32"/>
    </contour>
    <contour>
      <point x="1370" y="90" type="curve" smooth="yes"/>
      <point x="1310" y="90"/>
      <point x="1276" y="120"/>
      <point x="1276" y="164" type="curve" smooth="yes"/>
      <point x="1276" y="205"/>
      <point x="1305" y="239"/>
      <point x="1381" y="239" type="curve" smooth="yes"/>
      <point x="1537" y="239" type="line"/>
      <point x="1537" y="238" type="line"/>
      <point x="1537" y="136"/>
      <point x="1443" y="90"/>
    </contour>
    <component base="agrave"/>
    <component base="l" xOffset="850" identifier="6BAC4B09"/>
    <component base="a" xOffset="1114" yOffset="384" identifier="464D9CEC"/>
    <component base="u" xOffset="1711" yOffset="384" identifier="81743D23"/>
  </outline>
</glyph>
<glyph name="ae.ss02" format="1">
  <advance width="1085"/>
  <outline>
    <contour>
      <point x="593" y="319" type="line"/>
      <point x="593" y="237" type="line"/>
      <point x="1044" y="237" type="line"/>
      <point x="1047" y="256"/>
      <point x="1048" y="274"/>
      <point x="1048" y="291" type="curve" smooth="yes"/>
      <point x="1048" y="447"/>
      <point x="942" y="560"/>
      <point x="789" y="560" type="curve" smooth="yes"/>
      <point x="710" y="560"/>
      <point x="647" y="536"/>
      <point x="590" y="473" type="curve"/>
      <point x="590" y="551" type="line"/>
      <point x="495" y="551" type="line"/>
      <point x="495" y="473" type="line"/>
      <point x="446" y="532"/>
      <point x="382" y="560"/>
      <point x="303" y="560" type="curve" smooth="yes"/>
      <point x="152" y="560"/>
      <point x="37" y="448"/>
      <point x="37" y="278" type="curve" smooth="yes"/>
      <point x="37" y="108"/>
      <point x="152" y="-9"/>
      <point x="297" y="-9" type="curve" smooth="yes"/>
      <point x="382" y="-9"/>
      <point x="450" y="32"/>
      <point x="492" y="83" type="curve"/>
      <point x="492" y="0" type="line"/>
      <point x="590" y="0" type="line"/>
      <point x="590" y="83" type="line"/>
      <point x="632" y="30"/>
      <point x="706" y="-9"/>
      <point x="789" y="-9" type="curve" smooth="yes"/>
      <point x="917" y="-9"/>
      <point x="1002" y="68"/>
      <point x="1033" y="164" type="curve"/>
      <point x="909" y="164" type="line"/>
      <point x="891" y="120"/>
      <point x="845" y="87"/>
      <point x="769" y="87" type="curve" smooth="yes"/>
      <point x="690" y="87"/>
      <point x="603" y="147"/>
      <point x="603" y="265" type="curve" smooth="yes"/>
      <point x="603" y="290" type="line" smooth="yes"/>
      <point x="603" y="394"/>
      <point x="679" y="464"/>
      <point x="770" y="464" type="curve" smooth="yes"/>
      <point x="860" y="464"/>
      <point x="928" y="407"/>
      <point x="930" y="319" type="curve"/>
    </contour>
    <contour>
      <point x="154" y="159"/>
      <point x="154" y="278" type="curve" smooth="yes"/>
      <point x="154" y="397"/>
      <point x="236" y="461"/>
      <point x="321" y="461" type="curve" smooth="yes"/>
      <point x="407" y="461"/>
      <point x="488" y="394"/>
      <point x="488" y="276" type="curve" smooth="yes"/>
      <point x="488" y="157"/>
      <point x="407" y="90"/>
      <point x="321" y="90" type="curve" smooth="yes"/>
      <point x="236" y="90"/>
    </contour>
  </outline>
</glyph>
<glyph name="bout-e" format="1">
  <advance width="1031"/>
  <outline>
    <contour>
      <point x="460" y="276" type="line"/>
      <point x="460" y="233" type="line"/>
      <point x="999" y="233" type="line"/>
      <point x="1002" y="252"/>
      <point x="1003" y="270"/>
      <point x="1003" y="289" type="curve" smooth="yes"/>
      <point x="1003" y="451"/>
      <point x="892" y="560"/>
      <point x="735" y="560" type="curve" smooth="yes"/>
      <point x="572" y="560"/>
      <point x="460" y="449"/>
      <point x="460" y="276" type="curve"/>
      <point x="577" y="251" type="line"/>
      <point x="577" y="295" type="line" smooth="yes"/>
      <point x="577" y="400"/>
      <point x="644" y="464"/>
      <point x="730" y="464" type="curve" smooth="yes"/>
      <point x="815" y="464"/>
      <point x="882" y="410"/>
      <point x="884" y="325" type="curve"/>
      <point x="553" y="325" type="line"/>
    </contour>
  </outline>
</glyph>
<glyph name="colon.ss01" format="1">
  <advance width="279"/>
  <outline>
    <contour>
      <point x="70" y="132" type="line"/>
      <point x="70" y="0" type="line"/>
      <point x="199" y="0" type="line"/>
      <point x="199" y="132" type="line"/>
    </contour>
    <contour>
      <point x="70" y="551" type="line"/>
      <point x="70" y="419" type="line"/>
      <point x="199" y="419" type="line"/>
      <point x="199" y="551" type="line"/>
    </contour>
  </outline>
</glyph>
<glyph name="comma.ss01" format="1">
  <advance width="209"/>
  <outline>
    <contour>
      <point x="149" y="114" type="curve"/>
      <point x="32" y="114" type="line"/>
      <point x="32" y="5" type="line"/>
      <point x="93" y="5" type="line"/>
      <point x="93" y="-18" type="line" smooth="yes"/>
      <point x="93" y="-62"/>
      <point x="75" y="-83"/>
      <point x="39" y="-83" type="curve"/>
      <point x="39" y="-138" type="line"/>
      <point x="122" y="-138"/>
      <point x="165" y="-92"/>
      <point x="165" y="2" type="curve" smooth="yes"/>
      <point x="165" y="34"/>
      <point x="159" y="72"/>
    </contour>
  </outline>
</glyph>
<glyph name="divide.ss01" format="1">
  <advance width="679"/>
  <outline>
    <contour>
      <point x="90" y="412" type="line"/>
      <point x="90" y="311" type="line"/>
      <point x="600" y="311" type="line"/>
      <point x="600" y="412" type="line"/>
    </contour>
    <contour>
      <point x="281" y="215" type="line"/>
      <point x="281" y="82" type="line"/>
      <point x="410" y="82" type="line"/>
      <point x="410" y="215" type="line"/>
    </contour>
    <contour>
      <point x="281" y="640" type="line"/>
      <point x="281" y="508" type="line"/>
      <point x="410" y="508" type="line"/>
      <point x="410" y="640" type="line"/>
    </contour>
  </outline>
</glyph>
<glyph name="e.ss07" format="1">
  <advance width="617"/>
  <outline>
    <contour>
      <point x="208" y="325" type="line"/>
      <point x="154" y="233" type="line"/>
      <point x="576" y="233" type="line"/>
      <point x="579" y="252"/>
      <point x="580" y="270"/>
      <point x="580" y="289" type="curve" smooth="yes"/>
      <point x="580" y="451"/>
      <point x="469" y="560"/>
      <point x="312" y="560" type="curve" smooth="yes"/>
      <point x="149" y="560"/>
      <point x="37" y="449"/>
      <point x="37" y="276" type="curve" smooth="yes"/>
      <point x="37" y="103"/>
      <point x="154" y="-9"/>
      <point x="312" y="-9" type="curve" smooth="yes"/>
      <point x="447" y="-9"/>
      <point x="534" y="68"/>
      <point x="565" y="164" type="curve"/>
      <point x="442" y="164" type="line"/>
      <point x="421" y="121"/>
      <point x="382" y="87"/>
      <point x="312" y="87" type="curve" smooth="yes"/>
      <point x="223" y="87"/>
      <point x="154" y="150"/>
      <point x="154" y="251" type="curve" smooth="yes"/>
      <point x="154" y="295" type="line" smooth="yes"/>
      <point x="154" y="400"/>
      <point x="221" y="464"/>
      <point x="307" y="464" type="curve" smooth="yes"/>
      <point x="392" y="464"/>
      <point x="459" y="410"/>
      <point x="461" y="325" type="curve"/>
    </contour>
    <contour>
      <point x="309" y="0" type="move" name="bottom"/>
    </contour>
    <contour>
      <point x="418" y="14" type="move" name="ogonek"/>
    </contour>
    <contour>
      <point x="309" y="551" type="move" name="top"/>
    </contour>
  </outline>
</glyph>
<glyph name="e_a.001" format="1">
  <advance width="998"/>
  <outline>
    <contour>
      <point x="824" y="80" type="curve"/>
      <point x="824" y="0" type="line"/>
      <point x="940" y="0" type="line"/>
      <point x="940" y="323" type="line" smooth="yes"/>
      <point x="940" y="473"/>
      <point x="844" y="561"/>
      <point x="714" y="561" type="curve" smooth="yes"/>
      <point x="585" y="561"/>
      <point x="489" y="475"/>
      <point x="476" y="356" type="curve"/>
      <point x="580" y="319" type="line"/>
      <point x="578" y="413"/>
      <point x="630" y="462"/>
      <point x="706" y="462" type="curve" smooth="yes"/>
      <point x="783" y="462"/>
      <point x="821" y="407"/>
      <point x="824" y="331" type="curve"/>
      <point x="668" y="331" type="line" smooth="yes"/>
      <point x="512" y="331"/>
      <point x="446" y="249"/>
      <point x="446" y="155" type="curve" smooth="yes"/>
      <point x="446" y="60"/>
      <point x="525" y="-10"/>
      <point x="633" y="-10" type="curve" smooth="yes"/>
      <point x="717" y="-10"/>
      <point x="792" y="32"/>
    </contour>
    <contour>
      <point x="657" y="90" type="curve" smooth="yes"/>
      <point x="597" y="90"/>
      <point x="563" y="120"/>
      <point x="563" y="164" type="curve" smooth="yes"/>
      <point x="563" y="205"/>
      <point x="592" y="239"/>
      <point x="668" y="239" type="curve" smooth="yes"/>
      <point x="824" y="239" type="line"/>
      <point x="824" y="238" type="line"/>
      <point x="824" y="136"/>
      <point x="730" y="90"/>
    </contour>
    <component base="bout-e" xOffset="-422"/>
  </outline>
</glyph>
<glyph name="e_a.ss11" format="1">
  <advance width="1007"/>
  <outline>
    <contour>
      <point x="406" y="233" type="line"/>
      <point x="406" y="325" type="line"/>
      <point x="137" y="325" type="line"/>
      <point x="137" y="233" type="line"/>
    </contour>
    <contour>
      <point x="464" y="295" type="curve" smooth="yes"/>
      <point x="457" y="180" type="line" smooth="yes"/>
      <point x="450" y="60"/>
      <point x="525" y="-10"/>
      <point x="639" y="-10" type="curve" smooth="yes"/>
      <point x="727" y="-10"/>
      <point x="801" y="32"/>
      <point x="833" y="80" type="curve"/>
      <point x="833" y="0" type="line"/>
      <point x="949" y="0" type="line"/>
      <point x="949" y="323" type="line" smooth="yes"/>
      <point x="949" y="473"/>
      <point x="843" y="561"/>
      <point x="713" y="561" type="curve" smooth="yes"/>
      <point x="656" y="561"/>
      <point x="607" y="546"/>
      <point x="580" y="527" type="curve"/>
      <point x="627" y="437" type="line"/>
      <point x="648" y="453"/>
      <point x="676" y="462"/>
      <point x="708" y="462" type="curve" smooth="yes"/>
      <point x="785" y="462"/>
      <point x="830" y="407"/>
      <point x="833" y="331" type="curve"/>
      <point x="637" y="331" type="line"/>
      <point x="637" y="239" type="line"/>
      <point x="833" y="239" type="line"/>
      <point x="833" y="238" type="line" smooth="yes"/>
      <point x="833" y="136"/>
      <point x="739" y="90"/>
      <point x="666" y="90" type="curve" smooth="yes"/>
      <point x="607" y="90"/>
      <point x="569" y="119"/>
      <point x="574" y="189" type="curve" smooth="yes"/>
      <point x="581" y="286" type="line" smooth="yes"/>
      <point x="593" y="451"/>
      <point x="471" y="560"/>
      <point x="312" y="560" type="curve" smooth="yes"/>
      <point x="151" y="560"/>
      <point x="38" y="449"/>
      <point x="38" y="277" type="curve" smooth="yes"/>
      <point x="38" y="102"/>
      <point x="155" y="-9"/>
      <point x="314" y="-9" type="curve" smooth="yes"/>
      <point x="357" y="-9"/>
      <point x="396" y="-1"/>
      <point x="429" y="13" type="curve"/>
      <point x="388" y="100" type="line"/>
      <point x="370" y="92"/>
      <point x="338" y="87"/>
      <point x="313" y="87" type="curve" smooth="yes"/>
      <point x="224" y="87"/>
      <point x="155" y="150"/>
      <point x="155" y="251" type="curve" smooth="yes"/>
      <point x="155" y="295" type="line" smooth="yes"/>
      <point x="155" y="400"/>
      <point x="221" y="464"/>
      <point x="310" y="464" type="curve" smooth="yes"/>
      <point x="392" y="464"/>
      <point x="471" y="410"/>
    </contour>
  </outline>
</glyph>
<glyph name="e_s.001" format="1">
  <advance width="928"/>
  <outline>
    <contour>
      <point x="554" y="278" type="line"/>
      <point x="554" y="233" type="line"/>
      <point x="660" y="233" type="line"/>
      <point x="660" y="278" type="line"/>
    </contour>
    <component base="s" xOffset="398" identifier="CF6B5E90"/>
    <component base="bout-e" xOffset="-422"/>
  </outline>
</glyph>
<glyph name="e_s_s_e.ss12.001" format="1">
  <advance width="1877"/>
  <outline>
    <contour>
      <point x="554" y="278" type="line"/>
      <point x="554" y="233" type="line"/>
      <point x="660" y="233" type="line"/>
      <point x="660" y="278" type="line"/>
    </contour>
    <component base="bout-e" xOffset="-422"/>
    <component base="s_s_e" xOffset="398"/>
  </outline>
</glyph>
<glyph name="e_t.alt" format="1">
  <advance width="990"/>
  <outline>
    <contour>
      <point x="711" y="627" type="line"/>
      <point x="711" y="193" type="line" smooth="yes"/>
      <point x="711" y="116"/>
      <point x="680" y="92"/>
      <point x="566" y="92" type="curve" smooth="yes"/>
      <point x="297" y="92" type="line" smooth="yes"/>
      <point x="178" y="92"/>
      <point x="162" y="187"/>
      <point x="156" y="233" type="curve"/>
      <point x="577" y="233" type="line"/>
      <point x="580" y="252"/>
      <point x="581" y="270"/>
      <point x="581" y="289" type="curve" smooth="yes"/>
      <point x="581" y="451"/>
      <point x="470" y="560"/>
      <point x="313" y="560" type="curve" smooth="yes"/>
      <point x="150" y="560"/>
      <point x="38" y="449"/>
      <point x="38" y="276" type="curve" smooth="yes"/>
      <point x="38" y="158"/>
      <point x="97" y="0"/>
      <point x="308" y="0" type="curve" smooth="yes"/>
      <point x="517" y="0" type="line" smooth="yes"/>
      <point x="624" y="0"/>
      <point x="723" y="0"/>
      <point x="759" y="62" type="curve"/>
      <point x="779" y="18"/>
      <point x="806" y="0"/>
      <point x="870" y="0" type="curve" smooth="yes"/>
      <point x="960" y="0" type="line"/>
      <point x="960" y="95" type="line"/>
      <point x="890" y="95" type="line" smooth="yes"/>
      <point x="842" y="95"/>
      <point x="826" y="112"/>
      <point x="826" y="153" type="curve" smooth="yes"/>
      <point x="826" y="724" type="line"/>
    </contour>
    <contour>
      <point x="157" y="325" type="line"/>
      <point x="168" y="412"/>
      <point x="231" y="464"/>
      <point x="308" y="464" type="curve" smooth="yes"/>
      <point x="393" y="464"/>
      <point x="460" y="410"/>
      <point x="462" y="325" type="curve"/>
    </contour>
    <contour>
      <point x="646" y="458" type="line"/>
      <point x="960" y="458" type="line"/>
      <point x="960" y="551" type="line"/>
      <point x="646" y="551" type="line"/>
    </contour>
  </outline>
</glyph>
<glyph name="e_t_t_e.ss12.001" format="1">
  <advance width="1412"/>
  <outline>
    <contour>
      <point x="468" y="627" type="line"/>
      <point x="468" y="153" type="line" smooth="yes"/>
      <point x="468" y="41"/>
      <point x="529" y="0"/>
      <point x="627" y="0" type="curve" smooth="yes"/>
      <point x="717" y="0" type="line"/>
      <point x="717" y="95" type="line"/>
      <point x="647" y="95" type="line" smooth="yes"/>
      <point x="599" y="95"/>
      <point x="583" y="112"/>
      <point x="583" y="153" type="curve" smooth="yes"/>
      <point x="583" y="724" type="line"/>
    </contour>
    <contour>
      <point x="503" y="458" type="line"/>
      <point x="897" y="458" type="line"/>
      <point x="897" y="551" type="line"/>
      <point x="503" y="551" type="line"/>
    </contour>
    <contour>
      <point x="840" y="627" type="line"/>
      <point x="840" y="153" type="line" smooth="yes"/>
      <point x="840" y="41"/>
      <point x="901" y="0"/>
      <point x="999" y="0" type="curve" smooth="yes"/>
      <point x="1089" y="0" type="line"/>
      <point x="1089" y="95" type="line"/>
      <point x="1019" y="95" type="line" smooth="yes"/>
      <point x="971" y="95"/>
      <point x="955" y="112"/>
      <point x="955" y="153" type="curve" smooth="yes"/>
      <point x="955" y="724" type="line"/>
    </contour>
    <component base="bout-e" xOffset="-422" identifier="8ECDD779"/>
    <component base="bout-e" xOffset="381"/>
  </outline>
</glyph>
<glyph name="exclam.ss01" format="1">
  <advance width="289"/>
  <outline>
    <contour>
      <point x="84" y="697" type="line"/>
      <point x="97" y="210" type="line"/>
      <point x="192" y="210" type="line"/>
      <point x="205" y="697" type="line"/>
    </contour>
    <contour>
      <point x="80" y="132" type="line"/>
      <point x="80" y="0" type="line"/>
      <point x="209" y="0" type="line"/>
      <point x="209" y="132" type="line"/>
    </contour>
  </outline>
</glyph>
<glyph name="f.ss07" format="1">
  <advance width="340"/>
  <outline>
    <contour>
      <point x="89" y="570" type="curve" smooth="yes"/>
      <point x="89" y="0" type="line"/>
      <point x="204" y="0" type="line"/>
      <point x="204" y="590" type="line" smooth="yes"/>
      <point x="204" y="653"/>
      <point x="228" y="679"/>
      <point x="298" y="679" type="curve" smooth="yes"/>
      <point x="345" y="679" type="line"/>
      <point x="345" y="772" type="line"/>
      <point x="298" y="772" type="line" smooth="yes"/>
      <point x="154" y="772"/>
      <point x="89" y="697"/>
    </contour>
    <contour>
      <point x="142" y="458" type="line"/>
      <point x="142" y="551" type="line"/>
      <point x="24" y="551" type="line"/>
      <point x="24" y="458" type="line"/>
    </contour>
    <contour>
      <point x="258" y="551" type="line"/>
      <point x="204" y="458" type="line"/>
      <point x="345" y="458" type="line"/>
      <point x="345" y="551" type="line"/>
    </contour>
  </outline>
</glyph>
<glyph name="f_f" format="1">
  <advance width="666"/>
  <outline>
    <contour>
      <point x="93" y="590" type="curve" smooth="yes"/>
      <point x="93" y="0" type="line"/>
      <point x="208" y="0" type="line"/>
      <point x="208" y="590" type="line" smooth="yes"/>
      <point x="208" y="653"/>
      <point x="232" y="677"/>
      <point x="302" y="677" type="curve"/>
      <point x="302" y="772" type="line"/>
      <point x="158" y="772"/>
      <point x="93" y="717"/>
    </contour>
    <contour>
      <point x="28" y="551" type="line"/>
      <point x="28" y="458" type="line"/>
      <point x="370" y="458" type="line"/>
      <point x="370" y="551" type="line"/>
    </contour>
    <component base="f" xOffset="336"/>
  </outline>
</glyph>
<glyph name="f_f.ss07" format="1">
  <advance width="709"/>
  <outline>
    <contour>
      <point x="93" y="570" type="curve" smooth="yes"/>
      <point x="93" y="0" type="line"/>
      <point x="208" y="0" type="line"/>
      <point x="208" y="590" type="line" smooth="yes"/>
      <point x="208" y="653"/>
      <point x="232" y="679"/>
      <point x="302" y="679" type="curve" smooth="yes"/>
      <point x="349" y="679" type="line"/>
      <point x="349" y="772" type="line"/>
      <point x="302" y="772" type="line" smooth="yes"/>
      <point x="158" y="772"/>
      <point x="93" y="697"/>
    </contour>
    <contour>
      <point x="126" y="458" type="line"/>
      <point x="126" y="551" type="line"/>
      <point x="28" y="551" type="line"/>
      <point x="28" y="458" type="line"/>
    </contour>
    <contour>
      <point x="262" y="551" type="line"/>
      <point x="208" y="458" type="line"/>
      <point x="379" y="458" type="line"/>
      <point x="379" y="551" type="line"/>
    </contour>
    <component base="f.ss07" xOffset="344"/>
  </outline>
</glyph>
<glyph name="period.ss01" format="1">
  <advance width="235"/>
  <outline>
    <contour>
      <point x="53" y="132" type="line"/>
      <point x="53" y="0" type="line"/>
      <point x="182" y="0" type="line"/>
      <point x="182" y="132" type="line"/>
    </contour>
  </outline>
</glyph>
<glyph name="quotedblleft.ss06" format="1">
  <advance width="326"/>
  <outline>
    <contour>
      <point x="194" y="576" type="curve"/>
      <point x="297" y="576" type="line"/>
      <point x="297" y="672" type="line"/>
      <point x="244" y="672" type="line"/>
      <point x="244" y="693" type="line" smooth="yes"/>
      <point x="244" y="731"/>
      <point x="259" y="750"/>
      <point x="293" y="750" type="curve"/>
      <point x="293" y="800" type="line"/>
      <point x="218" y="800"/>
      <point x="180" y="758"/>
      <point x="180" y="675" type="curve" smooth="yes"/>
      <point x="180" y="646"/>
      <point x="184" y="613"/>
    </contour>
    <contour>
      <point x="43" y="576" type="curve"/>
      <point x="146" y="576" type="line"/>
      <point x="146" y="672" type="line"/>
      <point x="93" y="672" type="line"/>
      <point x="93" y="693" type="line" smooth="yes"/>
      <point x="93" y="731"/>
      <point x="108" y="750"/>
      <point x="141" y="750" type="curve"/>
      <point x="141" y="800" type="line"/>
      <point x="67" y="800"/>
      <point x="29" y="758"/>
      <point x="29" y="675" type="curve" smooth="yes"/>
      <point x="29" y="646"/>
      <point x="33" y="613"/>
    </contour>
    <contour>
      <point x="91" y="530" type="move" name="_top"/>
    </contour>
  </outline>
</glyph>
<glyph name="quotedblright.ss06" format="1">
  <advance width="326"/>
  <outline>
    <contour>
      <point x="284" y="800" type="curve"/>
      <point x="181" y="800" type="line"/>
      <point x="181" y="703" type="line"/>
      <point x="234" y="703" type="line"/>
      <point x="234" y="682" type="line" smooth="yes"/>
      <point x="234" y="644"/>
      <point x="218" y="625"/>
      <point x="185" y="625" type="curve"/>
      <point x="185" y="576" type="line"/>
      <point x="259" y="576"/>
      <point x="298" y="617"/>
      <point x="298" y="700" type="curve" smooth="yes"/>
      <point x="298" y="729"/>
      <point x="293" y="763"/>
    </contour>
    <contour>
      <point x="132" y="800" type="curve"/>
      <point x="29" y="800" type="line"/>
      <point x="29" y="703" type="line"/>
      <point x="82" y="703" type="line"/>
      <point x="82" y="682" type="line" smooth="yes"/>
      <point x="82" y="644"/>
      <point x="67" y="625"/>
      <point x="34" y="625" type="curve"/>
      <point x="34" y="576" type="line"/>
      <point x="108" y="576"/>
      <point x="146" y="617"/>
      <point x="146" y="700" type="curve" smooth="yes"/>
      <point x="146" y="729"/>
      <point x="142" y="763"/>
    </contour>
    <contour>
      <point x="235" y="845" type="move" name="_bottom"/>
    </contour>
  </outline>
</glyph>
<glyph name="r.ss07" format="1">
  <advance width="401"/>
  <outline>
    <contour>
      <point x="75" y="551" type="line"/>
      <point x="75" y="0" type="line"/>
      <point x="189" y="0" type="line"/>
      <point x="189" y="551" type="line"/>
    </contour>
    <contour>
      <point x="259" y="551" type="line"/>
      <point x="189" y="432" type="line"/>
      <point x="396" y="432" type="line"/>
      <point x="396" y="551" type="line"/>
    </contour>
    <contour>
      <point x="132" y="0" type="move" name="bottom"/>
    </contour>
    <contour>
      <point x="241" y="551" type="move" name="top"/>
    </contour>
  </outline>
</glyph>
<glyph name="rcommaaccent.ss07" format="1">
  <advance width="384"/>
  <outline>
    <contour>
      <point x="180" y="-46" type="curve"/>
      <point x="77" y="-46" type="line"/>
      <point x="77" y="-142" type="line"/>
      <point x="130" y="-142" type="line"/>
      <point x="130" y="-163" type="line" smooth="yes"/>
      <point x="130" y="-201"/>
      <point x="115" y="-220"/>
      <point x="82" y="-220" type="curve"/>
      <point x="82" y="-270" type="line"/>
      <point x="156" y="-270"/>
      <point x="194" y="-228"/>
      <point x="194" y="-145" type="curve" smooth="yes"/>
      <point x="194" y="-116"/>
      <point x="190" y="-83"/>
    </contour>
    <component base="r.ss07"/>
  </outline>
</glyph>
<glyph name="s_c.alt" format="1">
  <advance width="918"/>
  <outline>
    <contour>
      <point x="372" y="217" type="curve"/>
      <point x="450" y="61" type="line"/>
      <point x="498" y="16"/>
      <point x="562" y="-9"/>
      <point x="637" y="-9" type="curve" smooth="yes"/>
      <point x="772" y="-9"/>
      <point x="860" y="66"/>
      <point x="891" y="174" type="curve"/>
      <point x="768" y="174" type="line"/>
      <point x="747" y="117"/>
      <point x="705" y="87"/>
      <point x="637" y="87" type="curve" smooth="yes"/>
      <point x="545" y="87"/>
      <point x="484" y="155"/>
      <point x="484" y="276" type="curve" smooth="yes"/>
      <point x="484" y="396"/>
      <point x="545" y="464"/>
      <point x="637" y="464" type="curve" smooth="yes"/>
      <point x="705" y="464"/>
      <point x="749" y="430"/>
      <point x="768" y="377" type="curve"/>
      <point x="891" y="377" type="line"/>
      <point x="860" y="493"/>
      <point x="772" y="560"/>
      <point x="637" y="560" type="curve" smooth="yes"/>
      <point x="479" y="560"/>
      <point x="367" y="448"/>
      <point x="367" y="276" type="curve" smooth="yes"/>
      <point x="367" y="255"/>
      <point x="369" y="236"/>
    </contour>
    <contour>
      <point x="479" y="116" type="curve"/>
      <point x="421" y="269" type="line"/>
      <point x="328" y="332"/>
      <point x="167" y="322"/>
      <point x="167" y="402" type="curve" smooth="yes"/>
      <point x="167" y="439"/>
      <point x="198" y="464"/>
      <point x="259" y="464" type="curve" smooth="yes"/>
      <point x="321" y="464"/>
      <point x="380" y="431"/>
      <point x="384" y="383" type="curve"/>
      <point x="498" y="383" type="line"/>
      <point x="492" y="493"/>
      <point x="389" y="560"/>
      <point x="264" y="560" type="curve" smooth="yes"/>
      <point x="134" y="560"/>
      <point x="52" y="489"/>
      <point x="52" y="401" type="curve" smooth="yes"/>
      <point x="52" y="199"/>
      <point x="372" y="261"/>
      <point x="372" y="153" type="curve" smooth="yes"/>
      <point x="372" y="115"/>
      <point x="337" y="87"/>
      <point x="271" y="87" type="curve" smooth="yes"/>
      <point x="208" y="87"/>
      <point x="165" y="124"/>
      <point x="161" y="169" type="curve"/>
      <point x="43" y="169" type="line"/>
      <point x="48" y="69"/>
      <point x="141" y="-9"/>
      <point x="273" y="-9" type="curve" smooth="yes"/>
      <point x="384" y="-9"/>
      <point x="460" y="42"/>
    </contour>
  </outline>
</glyph>
<glyph name="two.ss04" format="1">
  <advance width="577"/>
  <outline>
    <contour>
      <point x="51" y="93" type="curve"/>
      <point x="51" y="10" type="line"/>
      <point x="537" y="10" type="line"/>
      <point x="537" y="105" type="line"/>
      <point x="220" y="105" type="line"/>
      <point x="337" y="212"/>
      <point x="517" y="347"/>
      <point x="517" y="524" type="curve" smooth="yes"/>
      <point x="517" y="655"/>
      <point x="433" y="744"/>
      <point x="285" y="744" type="curve" smooth="yes"/>
      <point x="156" y="744"/>
      <point x="54" y="667"/>
      <point x="50" y="509" type="curve"/>
      <point x="160" y="509" type="line"/>
      <point x="163" y="591"/>
      <point x="206" y="647"/>
      <point x="286" y="647" type="curve" smooth="yes"/>
      <point x="371" y="647"/>
      <point x="404" y="595"/>
      <point x="404" y="519" type="curve" smooth="yes"/>
      <point x="404" y="376"/>
      <point x="223" y="244"/>
    </contour>
  </outline>
</glyph>
<glyph name="y.ss07" format="1">
  <advance width="581"/>
  <outline>
    <contour>
      <point x="165" y="0" type="line"/>
      <point x="284" y="0" type="line"/>
      <point x="137" y="551" type="line"/>
      <point x="10" y="551" type="line"/>
    </contour>
    <contour>
      <point x="453" y="551" type="line"/>
      <point x="205" y="-259" type="line"/>
      <point x="323" y="-259" type="line"/>
      <point x="571" y="551" type="line"/>
    </contour>
    <contour>
      <point x="291" y="551" type="move" name="top"/>
    </contour>
  </outline>
</glyph>
